<svg xmlns="http://www.w3.org/2000/svg" xmlns:v="https://svgstorm.com"
viewBox = "0 0 256 256"
width="256"
height="256">
<g fill="None" fill-opacity="0.0" stroke="#2D2D32" stroke-opacity="1.00" stroke-width="0.3"><path d="
M 0.00 146.00 
C 1.94 145.45 2.67 144.15 4.00 143.00
C 9.07 144.78 4.38 147.89 6.00 151.00
C 9.60 150.73 9.56 146.02 13.00 146.00
C 16.00 149.62 7.56 155.78 15.00 154.00
C 14.19 156.04 11.73 156.97 11.00 159.00
C 12.97 162.01 13.56 166.41 13.00 170.00
C 14.76 170.05 16.07 168.47 18.00 169.00
C 17.45 164.97 18.40 161.38 16.00 159.00
C 19.14 156.93 18.25 146.77 21.31 141.31 C 24.36 135.84 27.54 130.13 33.25 126.25 C 38.95 122.36 43.44 116.30 50.00 117.00
C 46.68 115.79 51.55 111.22 54.00 113.00
C 51.57 110.54 54.94 108.72 57.00 108.00
C 56.97 101.02 59.08 91.45 64.00 86.00
C 61.95 85.17 60.42 73.77 63.59 71.25 C 66.76 68.73 67.56 63.40 68.93 57.93 C 70.29 52.45 74.97 47.81 77.77 42.77 C 80.57 37.73 85.18 40.17 89.10 35.10 C 93.02 30.03 101.57 37.54 106.22 33.78 C 110.88 30.02 118.41 31.74 123.67 31.67 C 128.94 31.59 132.18 32.01 138.00 32.00
C 140.20 30.51 140.02 29.57 138.00 28.00
C 141.50 26.85 143.11 22.63 147.00 22.00
C 144.08 20.01 144.61 19.65 149.00 17.00
C 147.83 13.17 150.39 11.95 148.00 9.00
C 150.07 10.66 153.07 9.89 150.00 8.00
C 153.70 6.52 156.22 3.77 159.00 0.00
L 0.00 0.00
L 0.00 146.00 Z"/>
</g>
<g fill="None" fill-opacity="0.0" stroke="#424247" stroke-opacity="1.00" stroke-width="0.3"><path d="
M 138.00 32.00 
C 143.11 33.77 143.65 43.80 150.00 42.00
C 151.24 45.48 152.38 48.35 149.00 51.00
C 156.91 49.27 148.16 56.05 150.35 58.69 C 152.55 61.34 153.27 66.23 151.00 70.00
C 153.29 70.50 152.45 73.21 155.00 70.00
C 154.37 77.98 160.41 75.83 165.02 75.02 C 169.64 74.22 174.93 79.77 180.00 75.00
C 180.47 74.89 181.00 75.00 181.00 75.00
C 182.48 70.92 193.32 73.82 194.00 68.00
C 197.82 73.06 202.93 65.24 207.00 64.00
C 203.17 67.76 208.53 66.12 211.00 68.00
C 208.39 63.59 216.98 63.28 214.00 60.00
C 217.81 60.43 220.68 55.99 221.00 61.00
C 227.91 59.27 236.62 62.17 246.00 63.00
C 252.39 68.74 248.09 77.50 242.00 76.00
C 242.18 79.55 240.12 82.39 238.00 85.00
C 241.80 87.28 244.68 89.27 249.00 89.00
C 247.24 93.88 243.36 94.76 241.00 99.00
C 240.44 100.34 241.08 101.69 241.00 102.00
C 243.04 100.96 247.33 100.27 247.00 104.00
C 249.44 102.22 251.31 102.66 254.00 102.00
C 251.24 103.82 252.95 107.10 256.00 107.00
L 256.00 0.00
L 159.00 0.00
C 156.22 3.77 153.70 6.52 150.00 8.00
C 153.07 9.89 150.07 10.66 148.00 9.00
C 150.39 11.95 147.83 13.17 149.00 17.00
C 144.61 19.65 144.08 20.01 147.00 22.00
C 143.11 22.63 141.50 26.85 138.00 28.00
C 140.02 29.57 140.20 30.51 138.00 32.00 Z"/>
</g>
<g fill="None" fill-opacity="0.0" stroke="#4B3538" stroke-opacity="1.00" stroke-width="0.3"><path d="
M 57.00 108.00 
C 57.01 109.94 57.73 111.14 58.00 113.00
C 52.42 119.09 43.62 123.76 38.00 130.00
C 37.31 130.89 36.71 132.22 36.00 133.00
C 50.62 122.56 61.96 114.09 65.99 95.99 C 70.02 77.89 75.31 64.51 79.00 46.00
C 88.97 38.01 103.60 39.75 114.74 38.60 C 125.89 37.44 137.68 35.42 148.00 47.00
C 144.03 53.21 148.94 60.86 145.86 67.92 C 142.77 74.99 147.89 86.96 158.03 82.98 C 168.16 79.00 171.06 81.69 180.00 75.00
C 174.93 79.77 169.64 74.22 165.02 75.02 C 160.41 75.83 154.37 77.98 155.00 70.00
C 152.45 73.21 153.29 70.50 151.00 70.00
C 153.27 66.23 152.55 61.34 150.35 58.69 C 148.16 56.05 156.91 49.27 149.00 51.00
C 152.38 48.35 151.24 45.48 150.00 42.00
C 143.65 43.80 143.11 33.77 138.00 32.00
C 132.18 32.01 128.94 31.59 123.67 31.67 C 118.41 31.74 110.88 30.02 106.22 33.78 C 101.57 37.54 93.02 30.03 89.10 35.10 C 85.18 40.17 80.57 37.73 77.77 42.77 C 74.97 47.81 70.29 52.45 68.93 57.93 C 67.56 63.40 66.76 68.73 63.59 71.25 C 60.42 73.77 61.95 85.17 64.00 86.00
C 59.08 91.45 56.97 101.02 57.00 108.00 Z"/>
</g>
<g fill="None" fill-opacity="0.0" stroke="#613739" stroke-opacity="1.00" stroke-width="0.3"><path d="
M 36.00 133.00 
C 30.83 138.63 25.64 143.97 25.93 151.08 C 26.22 158.18 20.61 166.65 27.00 172.00
C 25.31 169.46 26.75 167.99 27.00 166.00
C 26.97 158.03 28.43 146.75 33.75 140.75 C 39.08 134.76 44.90 131.63 51.75 126.75 C 58.59 121.86 62.83 118.07 65.31 110.31 C 67.78 102.54 69.92 92.89 71.99 84.99 C 74.07 77.09 74.61 68.74 76.33 61.33 C 78.05 53.92 82.17 43.94 90.00 43.00 C 97.83 42.06 113.75 41.66 121.00 42.00 C 128.25 42.34 143.14 40.15 143.78 49.22 C 144.42 58.30 140.99 66.16 141.00 76.00 C 141.01 85.84 149.81 88.01 157.25 86.20 C 164.68 84.39 174.65 79.79 179.00 82.00
C 185.82 73.45 196.77 79.29 206.00 77.00 C 215.23 74.71 224.49 68.46 235.00 73.00
C 235.78 72.77 237.18 72.98 238.00 73.00
C 233.35 69.94 225.50 69.74 219.25 70.60 C 213.01 71.46 205.32 73.95 199.00 74.00 C 192.67 74.05 188.94 77.13 181.00 75.00
C 181.00 75.00 180.47 74.89 180.00 75.00
C 171.06 81.69 168.16 79.00 158.03 82.98 C 147.89 86.96 142.77 74.99 145.86 67.92 C 148.94 60.86 144.03 53.21 148.00 47.00
C 137.68 35.42 125.89 37.44 114.74 38.60 C 103.60 39.75 88.97 38.01 79.00 46.00
C 75.31 64.51 70.02 77.89 65.99 95.99 C 61.96 114.09 50.62 122.56 36.00 133.00 Z"/>
</g>
<g fill="None" fill-opacity="0.0" stroke="#813E3E" stroke-opacity="1.00" stroke-width="0.3"><path d="
M 27.00 166.00 
C 27.00 166.94 26.84 168.08 27.00 169.00
C 26.91 167.94 28.83 163.85 29.00 162.00
C 30.20 148.76 35.07 135.83 49.08 131.08 C 63.09 126.33 67.55 114.72 70.31 101.31 C 73.06 87.89 76.80 74.05 82.00 62.00
C 82.92 57.83 83.14 51.84 85.00 48.00
C 87.39 43.05 96.61 44.90 102.00 45.00 C 107.39 45.10 117.13 44.11 122.00 45.00 C 126.87 45.89 138.54 42.25 141.00 46.00
C 142.41 48.15 138.93 54.56 138.67 57.67 C 138.42 60.79 136.56 66.41 136.00 70.00 C 135.45 73.59 133.86 78.30 133.00 82.00
C 132.68 83.37 132.36 84.60 132.00 86.00
C 132.05 86.31 137.21 89.93 134.00 92.00
C 137.20 93.14 140.77 92.87 144.00 94.00
C 169.60 88.04 195.44 83.23 221.00 77.00
C 224.97 76.03 230.23 75.52 234.00 74.00
C 234.26 73.90 234.65 73.11 235.00 73.00
C 224.49 68.46 215.23 74.71 206.00 77.00 C 196.77 79.29 185.82 73.45 179.00 82.00
C 174.65 79.79 164.68 84.39 157.25 86.20 C 149.81 88.01 141.01 85.84 141.00 76.00 C 140.99 66.16 144.42 58.30 143.78 49.22 C 143.14 40.15 128.25 42.34 121.00 42.00 C 113.75 41.66 97.83 42.06 90.00 43.00 C 82.17 43.94 78.05 53.92 76.33 61.33 C 74.61 68.74 74.07 77.09 71.99 84.99 C 69.92 92.89 67.78 102.54 65.31 110.31 C 62.83 118.07 58.59 121.86 51.75 126.75 C 44.90 131.63 39.08 134.76 33.75 140.75 C 28.43 146.75 26.97 158.03 27.00 166.00 Z"/>
</g>
<g fill="None" fill-opacity="0.0" stroke="#9F5A57" stroke-opacity="1.00" stroke-width="0.3"><path d="
M 85.00 48.00 
C 87.98 43.66 96.70 46.54 102.00 46.00 C 107.30 45.46 115.44 46.00 121.00 46.00
C 127.67 46.00 134.33 46.00 141.00 46.00
C 138.54 42.25 126.87 45.89 122.00 45.00 C 117.13 44.11 107.39 45.10 102.00 45.00 C 96.61 44.90 87.39 43.05 85.00 48.00 Z"/>
</g>
<g fill="None" fill-opacity="0.0" stroke="#D9827E" stroke-opacity="1.00" stroke-width="0.3"><path d="
M 85.00 48.00 
C 83.14 51.84 82.92 57.83 82.00 62.00
C 80.38 69.29 78.81 76.70 77.00 84.00
C 76.84 84.35 80.67 78.72 81.00 78.00
C 81.86 73.94 82.65 67.00 84.33 63.33 C 86.01 59.66 85.54 51.61 88.00 49.00
C 91.17 45.64 100.00 48.57 105.00 48.00 C 110.00 47.43 118.69 47.79 124.00 48.00
C 123.37 47.82 121.59 46.15 121.00 46.00
C 115.44 46.00 107.30 45.46 102.00 46.00 C 96.70 46.54 87.98 43.66 85.00 48.00 Z"/>
</g>
<g fill="None" fill-opacity="0.0" stroke="#D59F95" stroke-opacity="1.00" stroke-width="0.3"><path d="
M 124.00 48.00 
C 125.84 48.07 127.82 48.83 129.00 49.00
C 131.67 49.00 134.33 49.00 137.00 49.00
C 135.51 60.87 131.47 72.09 130.00 84.00
C 130.58 83.25 132.54 82.71 133.00 82.00
C 133.86 78.30 135.45 73.59 136.00 70.00 C 136.56 66.41 138.42 60.79 138.67 57.67 C 138.93 54.56 142.41 48.15 141.00 46.00
C 134.33 46.00 127.67 46.00 121.00 46.00
C 121.59 46.15 123.37 47.82 124.00 48.00 Z"/>
</g>
<g fill="None" fill-opacity="0.0" stroke="#9F5E5E" stroke-opacity="1.00" stroke-width="0.3"><path d="
M 88.00 49.00 
C 101.67 49.00 115.33 49.00 129.00 49.00
C 127.82 48.83 125.84 48.07 124.00 48.00
C 118.69 47.79 110.00 47.43 105.00 48.00 C 100.00 48.57 91.17 45.64 88.00 49.00 Z"/>
</g>
<g fill="None" fill-opacity="0.0" stroke="#783E41" stroke-opacity="1.00" stroke-width="0.3"><path d="
M 81.00 78.00 
C 78.52 89.77 74.68 100.74 72.67 112.67 C 70.67 124.61 64.24 131.86 51.92 135.92 C 39.60 139.98 36.74 149.78 33.00 161.00
C 37.14 153.16 40.10 143.75 49.00 140.00
C 59.66 135.51 72.65 130.50 74.78 117.78 C 76.91 105.06 79.78 90.61 83.00 78.00
C 85.37 68.72 87.69 59.34 90.00 50.00
C 103.35 49.62 114.42 50.50 128.00 50.00 C 141.58 49.50 129.49 67.68 129.08 75.08 C 128.67 82.48 118.94 102.53 130.00 103.00 C 141.07 103.46 150.55 97.70 161.01 96.01 C 171.47 94.32 181.33 90.60 191.67 88.67 C 202.02 86.74 213.13 84.51 222.00 80.00
C 221.02 80.15 219.98 79.85 219.00 80.00
C 187.75 84.71 157.45 96.68 126.00 101.00
C 126.52 95.14 128.31 89.57 130.00 84.00
C 131.47 72.09 135.51 60.87 137.00 49.00
C 134.33 49.00 131.67 49.00 129.00 49.00
C 115.33 49.00 101.67 49.00 88.00 49.00
C 85.54 51.61 86.01 59.66 84.33 63.33 C 82.65 67.00 81.86 73.94 81.00 78.00 Z"/>
</g>
<g fill="None" fill-opacity="0.0" stroke="#544648" stroke-opacity="1.00" stroke-width="0.3"><path d="
M 83.00 78.00 
C 84.74 76.20 85.24 78.40 85.00 80.00
C 87.01 80.82 86.47 78.18 88.00 78.00
C 89.42 71.80 92.72 68.52 92.78 61.78 C 92.84 55.04 100.59 52.85 107.00 55.00 C 113.41 57.15 122.71 51.49 128.00 55.00
C 130.15 56.43 127.52 60.98 127.00 63.00
C 125.96 73.98 126.35 80.85 123.01 93.01 C 119.67 105.17 134.79 106.68 144.00 102.00
C 143.02 103.11 141.68 103.28 143.00 105.00
C 165.16 99.39 187.82 95.66 210.00 90.00
C 213.01 89.23 218.12 85.93 221.00 88.00
C 216.61 89.25 211.79 90.93 208.00 93.00
C 209.88 93.17 210.66 94.82 212.00 96.00
C 206.78 102.99 193.84 102.59 191.00 109.00
C 193.55 108.07 197.79 104.64 200.00 107.00
C 201.34 108.44 200.83 109.28 200.00 111.00
C 203.11 109.02 208.32 108.95 211.00 108.00
C 215.30 105.65 219.88 102.27 224.23 100.23 C 228.58 98.19 234.25 92.37 238.00 96.00
C 239.92 97.86 238.70 96.99 237.00 100.00
C 238.56 100.41 239.69 99.54 241.00 99.00
C 243.36 94.76 247.24 93.88 249.00 89.00
C 244.68 89.27 241.80 87.28 238.00 85.00
C 240.12 82.39 242.18 79.55 242.00 76.00
C 248.09 77.50 252.39 68.74 246.00 63.00
C 236.62 62.17 227.91 59.27 221.00 61.00
C 220.68 55.99 217.81 60.43 214.00 60.00
C 216.98 63.28 208.39 63.59 211.00 68.00
C 208.53 66.12 203.17 67.76 207.00 64.00
C 202.93 65.24 197.82 73.06 194.00 68.00
C 193.32 73.82 182.48 70.92 181.00 75.00
C 188.94 77.13 192.67 74.05 199.00 74.00 C 205.32 73.95 213.01 71.46 219.25 70.60 C 225.50 69.74 233.35 69.94 238.00 73.00
C 239.33 73.04 240.67 72.97 242.00 73.00
C 242.36 75.07 239.61 75.84 238.00 76.00
C 233.36 77.98 226.98 79.26 222.00 80.00
C 213.13 84.51 202.02 86.74 191.67 88.67 C 181.33 90.60 171.47 94.32 161.01 96.01 C 150.55 97.70 141.07 103.46 130.00 103.00 C 118.94 102.53 128.67 82.48 129.08 75.08 C 129.49 67.68 141.58 49.50 128.00 50.00 C 114.42 50.50 103.35 49.62 90.00 50.00
C 87.69 59.34 85.37 68.72 83.00 78.00 Z"/>
</g>
<g fill="None" fill-opacity="0.0" stroke="#9B9894" stroke-opacity="1.00" stroke-width="0.3"><path d="
M 88.00 78.00 
C 84.95 91.33 82.30 104.69 79.00 118.00
C 81.36 114.45 84.76 105.12 86.00 98.00
C 86.86 100.49 85.66 104.72 87.00 108.00
C 87.78 104.34 91.39 109.00 90.00 110.00
C 92.85 113.23 90.74 105.87 94.00 107.00
C 94.52 108.93 97.97 111.85 95.00 114.00
C 94.50 118.10 89.82 127.82 93.00 131.00
C 91.62 128.53 94.80 123.05 95.00 120.00 C 95.20 116.95 97.78 112.44 98.00 109.00
C 98.41 102.60 99.52 93.58 102.00 87.00
C 100.12 85.63 98.00 83.71 98.00 81.00
C 109.15 85.56 100.58 69.27 99.00 64.00
C 101.86 61.98 112.84 58.28 116.00 65.00
C 118.31 65.45 119.07 62.47 121.00 62.00
C 123.56 59.98 126.91 57.65 128.00 55.00
C 122.71 51.49 113.41 57.15 107.00 55.00 C 100.59 52.85 92.84 55.04 92.78 61.78 C 92.72 68.52 89.42 71.80 88.00 78.00 Z"/>
</g>
<g fill="None" fill-opacity="0.0" stroke="#736E6A" stroke-opacity="1.00" stroke-width="0.3"><path d="
M 121.00 62.00 
C 117.35 65.65 114.66 70.34 111.00 74.00
C 114.80 74.30 112.93 82.62 117.00 78.00
C 116.98 81.40 121.09 88.53 115.00 89.00
C 122.57 96.15 110.52 105.02 114.00 113.00
C 114.98 112.37 115.55 112.12 116.00 111.00
C 121.86 96.36 123.07 78.38 127.00 63.00
C 127.52 60.98 130.15 56.43 128.00 55.00
C 126.91 57.65 123.56 59.98 121.00 62.00 Z"/>
</g>
<g fill="None" fill-opacity="0.0" stroke="#C0BEBC" stroke-opacity="1.00" stroke-width="0.3"><path d="
M 98.00 109.00 
C 101.85 96.70 101.60 83.40 111.00 74.00
C 114.66 70.34 117.35 65.65 121.00 62.00
C 119.07 62.47 118.31 65.45 116.00 65.00
C 112.84 58.28 101.86 61.98 99.00 64.00
C 100.58 69.27 109.15 85.56 98.00 81.00
C 98.00 83.71 100.12 85.63 102.00 87.00
C 99.52 93.58 98.41 102.60 98.00 109.00 Z"/>
</g>
<g fill="None" fill-opacity="0.0" stroke="#9B3235" stroke-opacity="1.00" stroke-width="0.3"><path d="
M 29.00 162.00 
C 34.42 142.28 47.63 131.70 67.00 124.00
C 69.65 110.57 73.38 96.81 77.00 84.00
C 78.81 76.70 80.38 69.29 82.00 62.00
C 76.80 74.05 73.06 87.89 70.31 101.31 C 67.55 114.72 63.09 126.33 49.08 131.08 C 35.07 135.83 30.20 148.76 29.00 162.00 Z"/>
</g>
<g fill="None" fill-opacity="0.0" stroke="#3B3436" stroke-opacity="1.00" stroke-width="0.3"><path d="
M 116.00 111.00 
C 119.25 109.21 125.27 109.16 129.07 108.07 C 132.88 106.99 139.03 105.06 143.00 105.00
C 141.68 103.28 143.02 103.11 144.00 102.00
C 134.79 106.68 119.67 105.17 123.01 93.01 C 126.35 80.85 125.96 73.98 127.00 63.00
C 123.07 78.38 121.86 96.36 116.00 111.00 Z"/>
</g>
<g fill="None" fill-opacity="0.0" stroke="#8E6964" stroke-opacity="1.00" stroke-width="0.3"><path d="
M 234.00 74.00 
C 234.23 74.10 238.95 76.15 238.00 76.00
C 239.61 75.84 242.36 75.07 242.00 73.00
C 240.67 72.97 239.33 73.04 238.00 73.00
C 237.18 72.98 235.78 72.77 235.00 73.00
C 234.65 73.11 234.26 73.90 234.00 74.00 Z"/>
</g>
<g fill="None" fill-opacity="0.0" stroke="#615C5E" stroke-opacity="1.00" stroke-width="0.3"><path d="
M 98.00 109.00 
C 99.37 107.10 102.20 107.48 104.00 108.00
C 104.26 113.26 111.85 116.75 105.00 121.00
C 110.15 121.01 114.59 118.11 120.00 119.00
C 115.32 125.91 100.09 127.95 93.00 131.00
C 89.82 127.82 94.50 118.10 95.00 114.00
C 93.37 118.52 88.30 119.42 89.00 125.00
C 84.65 123.63 81.26 126.92 80.00 123.00
C 80.19 126.55 77.39 129.30 78.00 133.00
C 73.89 133.24 70.90 136.76 67.00 138.00
C 68.27 141.02 71.88 136.54 73.00 139.00
C 65.40 141.06 57.33 141.56 51.00 147.00
C 74.20 140.56 97.61 132.96 120.00 125.00
C 129.02 118.75 140.48 115.40 151.00 111.00
C 150.92 109.74 148.94 110.44 149.00 109.00
C 148.56 109.16 148.00 109.00 148.00 109.00
C 144.70 110.80 140.79 110.96 137.00 112.00
C 128.32 116.34 118.60 116.72 110.00 117.00
C 110.67 115.80 111.64 114.42 113.00 114.00
C 113.27 113.83 113.69 113.20 114.00 113.00
C 110.52 105.02 122.57 96.15 115.00 89.00
C 121.09 88.53 116.98 81.40 117.00 78.00
C 112.93 82.62 114.80 74.30 111.00 74.00
C 101.60 83.40 101.85 96.70 98.00 109.00 Z"/>
</g>
<g fill="None" fill-opacity="0.0" stroke="#C89A8F" stroke-opacity="1.00" stroke-width="0.3"><path d="
M 221.00 77.00 
C 220.45 77.46 219.98 79.32 219.00 80.00
C 219.98 79.85 221.02 80.15 222.00 80.00
C 226.98 79.26 233.36 77.98 238.00 76.00
C 238.95 76.15 234.23 74.10 234.00 74.00
C 230.23 75.52 224.97 76.03 221.00 77.00 Z"/>
</g>
<g fill="None" fill-opacity="0.0" stroke="#3E3035" stroke-opacity="1.00" stroke-width="0.3"><path d="
M 83.00 78.00 
C 79.78 90.61 76.91 105.06 74.78 117.78 C 72.65 130.50 59.66 135.51 49.00 140.00
C 40.53 145.69 37.06 155.33 36.00 165.00
C 39.26 165.60 41.91 164.17 45.00 164.00
C 45.14 164.18 44.02 159.91 44.00 160.00
C 44.23 159.11 46.17 158.34 47.00 158.00
C 48.81 157.25 51.08 156.58 53.00 156.00
C 51.86 156.06 48.57 153.67 47.00 156.00
C 45.28 153.73 46.27 150.66 46.00 148.00
C 47.51 143.91 55.19 142.71 58.75 139.75 C 62.30 136.79 67.69 134.79 72.08 132.08 C 76.48 129.37 77.81 122.80 79.00 118.00
C 82.30 104.69 84.95 91.33 88.00 78.00
C 86.47 78.18 87.01 80.82 85.00 80.00
C 85.24 78.40 84.74 76.20 83.00 78.00 Z"/>
</g>
<g fill="None" fill-opacity="0.0" stroke="#D77C7C" stroke-opacity="1.00" stroke-width="0.3"><path d="
M 144.00 94.00 
C 139.76 94.99 134.87 97.03 130.00 97.00
C 130.08 93.19 131.26 89.67 132.00 86.00
C 132.36 84.60 132.68 83.37 133.00 82.00
C 132.54 82.71 130.58 83.25 130.00 84.00
C 128.31 89.57 126.52 95.14 126.00 101.00
C 157.45 96.68 187.75 84.71 219.00 80.00
C 219.98 79.32 220.45 77.46 221.00 77.00
C 195.44 83.23 169.60 88.04 144.00 94.00 Z"/>
</g>
<g fill="None" fill-opacity="0.0" stroke="#D35054" stroke-opacity="1.00" stroke-width="0.3"><path d="
M 77.00 84.00 
C 73.38 96.81 69.65 110.57 67.00 124.00
C 47.63 131.70 34.42 142.28 29.00 162.00
C 28.83 163.85 26.91 167.94 27.00 169.00
C 27.38 171.20 27.39 170.04 29.00 171.00
C 37.08 173.17 46.77 169.37 55.00 171.00
C 51.77 182.18 50.11 194.44 46.00 205.00
C 46.41 207.83 46.08 206.61 48.00 208.00
C 56.85 211.34 68.38 206.60 78.00 208.00 C 87.62 209.40 99.04 207.48 109.00 208.00 C 118.96 208.52 129.95 208.00 140.00 208.00
C 140.84 207.43 140.84 205.57 140.00 205.00
C 134.33 205.00 128.67 205.00 123.00 205.00
C 98.67 205.00 74.33 205.00 50.00 205.00
C 52.51 192.96 55.26 180.35 59.00 169.00
C 56.94 165.90 49.81 168.81 46.00 168.00 C 42.19 167.19 35.11 168.60 31.00 168.00
C 30.37 165.28 33.07 163.59 33.00 161.00
C 36.74 149.78 39.60 139.98 51.92 135.92 C 64.24 131.86 70.67 124.61 72.67 112.67 C 74.68 100.74 78.52 89.77 81.00 78.00
C 80.67 78.72 76.84 84.35 77.00 84.00 Z"/>
</g>
<g fill="None" fill-opacity="0.0" stroke="#B23D3D" stroke-opacity="1.00" stroke-width="0.3"><path d="
M 144.00 94.00 
C 140.77 92.87 137.20 93.14 134.00 92.00
C 137.21 89.93 132.05 86.31 132.00 86.00
C 131.26 89.67 130.08 93.19 130.00 97.00
C 134.87 97.03 139.76 94.99 144.00 94.00 Z"/>
</g>
<g fill="None" fill-opacity="0.0" stroke="#8E8781" stroke-opacity="1.00" stroke-width="0.3"><path d="
M 210.00 90.00 
C 203.26 93.42 189.24 98.46 180.00 101.00
C 182.55 100.76 185.90 100.65 189.00 100.00
C 195.52 98.63 201.79 95.47 208.00 93.00
C 211.79 90.93 216.61 89.25 221.00 88.00
C 218.12 85.93 213.01 89.23 210.00 90.00 Z"/>
</g>
<g fill="None" fill-opacity="0.0" stroke="#CAC8C3" stroke-opacity="1.00" stroke-width="0.3"><path d="
M 143.00 105.00 
C 145.71 104.96 151.60 106.36 154.00 106.00
C 152.65 107.26 143.74 107.80 148.00 109.00
C 148.00 109.00 148.56 109.16 149.00 109.00
C 158.09 105.77 170.36 101.90 180.00 101.00
C 189.24 98.46 203.26 93.42 210.00 90.00
C 187.82 95.66 165.16 99.39 143.00 105.00 Z"/>
</g>
<g fill="None" fill-opacity="0.0" stroke="#282227" stroke-opacity="1.00" stroke-width="0.3"><path d="
M 189.00 100.00 
C 166.44 108.85 143.00 116.82 120.00 125.00
C 97.61 132.96 74.20 140.56 51.00 147.00
C 50.06 147.26 46.64 147.17 46.00 148.00
C 46.27 150.66 45.28 153.73 47.00 156.00
C 48.57 153.67 51.86 156.06 53.00 156.00
C 57.32 154.71 62.82 153.30 67.07 152.07 C 71.33 150.85 76.62 148.37 80.68 147.68 C 84.74 146.98 90.91 143.61 94.22 143.22 C 97.53 142.84 106.74 137.71 108.00 140.00
C 109.45 142.62 104.98 147.03 105.22 150.22 C 105.46 153.42 102.44 158.50 103.00 162.00
C 111.67 162.00 120.33 162.00 129.00 162.00
C 127.53 160.99 126.43 158.52 124.00 159.00
C 129.02 144.53 147.83 140.63 159.70 131.70 C 171.56 122.76 188.51 120.95 200.00 111.00
C 200.83 109.28 201.34 108.44 200.00 107.00
C 197.46 105.45 189.75 112.27 186.77 113.77 C 183.79 115.27 176.18 119.17 173.00 121.00
C 154.66 131.55 136.26 142.09 117.00 151.00
C 115.21 151.83 113.45 154.23 111.00 154.00
C 110.87 151.21 111.12 147.88 113.00 146.00
C 114.25 141.45 113.38 135.23 119.22 134.22 C 125.07 133.22 127.69 131.82 133.00 130.00
C 152.46 123.34 171.70 116.04 191.00 109.00
C 193.84 102.59 206.78 102.99 212.00 96.00
C 210.66 94.82 209.88 93.17 208.00 93.00
C 201.79 95.47 195.52 98.63 189.00 100.00 Z"/>
</g>
<g fill="None" fill-opacity="0.0" stroke="#B88B86" stroke-opacity="1.00" stroke-width="0.3"><path d="
M 211.00 108.00 
C 209.67 108.73 208.31 109.25 207.00 110.00
C 207.30 109.67 206.58 113.53 207.00 113.00
C 214.77 108.58 223.12 104.53 231.00 100.00
C 232.80 98.96 235.86 95.93 238.00 96.00
C 234.25 92.37 228.58 98.19 224.23 100.23 C 219.88 102.27 215.30 105.65 211.00 108.00 Z"/>
</g>
<g fill="None" fill-opacity="0.0" stroke="#4A2F31" stroke-opacity="1.00" stroke-width="0.3"><path d="
M 231.00 100.00 
C 230.19 100.88 229.02 102.91 228.00 104.00
C 221.32 111.16 213.72 116.72 204.77 119.77 C 195.83 122.83 188.32 132.54 181.00 134.00
C 179.82 136.59 181.47 139.00 181.00 142.00
C 186.35 140.13 186.43 145.99 191.30 150.70 C 196.18 155.40 189.34 167.21 195.00 170.00
C 191.58 178.78 187.59 188.76 187.00 197.00
C 189.15 194.25 188.46 190.85 190.31 188.30 C 192.15 185.75 195.15 184.74 196.00 182.00
C 195.91 178.53 196.71 172.95 201.00 171.00
C 199.47 166.85 195.99 160.48 200.00 158.00
C 199.34 156.07 196.61 155.33 197.00 153.00
C 195.86 151.11 195.33 143.37 191.00 144.00
C 191.22 135.75 197.48 131.39 204.67 128.67 C 211.86 125.95 215.67 117.54 223.00 117.00
C 222.31 118.28 219.89 120.22 223.00 120.00
C 227.38 119.22 227.39 110.00 232.00 115.00
C 227.62 109.19 238.77 107.14 241.00 102.00
C 241.08 101.69 240.44 100.34 241.00 99.00
C 239.69 99.54 238.56 100.41 237.00 100.00
C 238.70 96.99 239.92 97.86 238.00 96.00
C 235.86 95.93 232.80 98.96 231.00 100.00 Z"/>
</g>
<g fill="None" fill-opacity="0.0" stroke="#857E7E" stroke-opacity="1.00" stroke-width="0.3"><path d="
M 79.00 118.00 
C 77.81 122.80 76.48 129.37 72.08 132.08 C 67.69 134.79 62.30 136.79 58.75 139.75 C 55.19 142.71 47.51 143.91 46.00 148.00
C 46.64 147.17 50.06 147.26 51.00 147.00
C 57.33 141.56 65.40 141.06 73.00 139.00
C 71.88 136.54 68.27 141.02 67.00 138.00
C 70.90 136.76 73.89 133.24 78.00 133.00
C 77.39 129.30 80.19 126.55 80.00 123.00
C 81.26 126.92 84.65 123.63 89.00 125.00
C 88.30 119.42 93.37 118.52 95.00 114.00
C 97.97 111.85 94.52 108.93 94.00 107.00
C 90.74 105.87 92.85 113.23 90.00 110.00
C 91.39 109.00 87.78 104.34 87.00 108.00
C 85.66 104.72 86.86 100.49 86.00 98.00
C 84.76 105.12 81.36 114.45 79.00 118.00 Z"/>
</g>
<g fill="None" fill-opacity="0.0" stroke="#766B6A" stroke-opacity="1.00" stroke-width="0.3"><path d="
M 180.00 101.00 
C 170.36 101.90 158.09 105.77 149.00 109.00
C 148.94 110.44 150.92 109.74 151.00 111.00
C 140.48 115.40 129.02 118.75 120.00 125.00
C 143.00 116.82 166.44 108.85 189.00 100.00
C 185.90 100.65 182.55 100.76 180.00 101.00 Z"/>
</g>
<g fill="None" fill-opacity="0.0" stroke="#7B3030" stroke-opacity="1.00" stroke-width="0.3"><path d="
M 207.00 113.00 
C 196.15 119.17 184.88 125.54 174.00 132.00
C 170.41 135.32 162.21 141.70 159.70 145.70 C 157.19 149.71 177.25 152.73 180.00 153.00
C 182.67 153.00 185.33 153.00 188.00 153.00
C 185.58 169.65 180.63 185.64 177.00 202.00
C 176.79 202.85 176.45 206.47 176.00 207.00
C 188.26 200.27 182.84 182.61 188.20 171.75 C 193.55 160.90 187.95 144.37 174.00 142.00
C 178.42 131.44 189.72 127.22 198.70 120.70 C 207.68 114.17 218.24 109.03 228.00 104.00
C 229.02 102.91 230.19 100.88 231.00 100.00
C 223.12 104.53 214.77 108.58 207.00 113.00 Z"/>
</g>
<g fill="None" fill-opacity="0.0" stroke="#2D2D32" stroke-opacity="1.00" stroke-width="0.3"><path d="
M 241.00 102.00 
C 238.77 107.14 227.62 109.19 232.00 115.00
C 227.39 110.00 227.38 119.22 223.00 120.00
C 224.35 120.87 224.32 119.62 226.00 119.00
C 218.56 128.52 207.50 134.26 197.00 141.00
C 198.07 146.18 197.46 151.16 201.00 155.00
C 199.18 155.55 198.53 153.25 197.00 153.00
C 196.61 155.33 199.34 156.07 200.00 158.00
C 195.99 160.48 199.47 166.85 201.00 171.00
C 196.71 172.95 195.91 178.53 196.00 182.00
C 196.12 186.54 195.68 189.86 196.00 194.00
C 190.07 196.23 193.23 202.74 189.60 206.75 C 185.97 210.75 180.30 214.94 177.00 219.00
C 175.68 221.46 178.00 220.34 178.00 223.00
C 173.04 224.32 169.86 231.55 164.00 231.00
C 165.92 233.45 165.89 235.60 165.00 239.00
C 159.48 239.08 162.97 239.09 164.00 242.00
C 160.80 242.97 157.47 239.14 156.00 245.00
C 162.88 241.60 166.70 249.05 164.00 255.00
C 160.34 254.38 164.21 251.06 162.00 250.00
C 161.49 252.99 158.04 253.28 157.00 256.00
L 256.00 256.00
L 256.00 107.00
C 252.95 107.10 251.24 103.82 254.00 102.00
C 251.31 102.66 249.44 102.22 247.00 104.00
C 247.33 100.27 243.04 100.96 241.00 102.00 Z"/>
</g>
<g fill="None" fill-opacity="0.0" stroke="#602627" stroke-opacity="1.00" stroke-width="0.3"><path d="
M 176.00 207.00 
C 174.13 208.03 172.43 207.93 170.00 208.00
C 157.93 210.54 143.00 209.88 130.00 210.00 C 117.00 210.12 100.94 212.73 88.00 211.00 C 75.06 209.27 58.44 215.53 48.00 208.00
C 46.08 206.61 46.41 207.83 46.00 205.00
C 44.64 195.54 50.78 185.78 49.00 176.00
C 42.86 172.70 34.72 174.36 29.00 171.00
C 27.39 170.04 27.38 171.20 27.00 169.00
C 26.84 168.08 27.00 166.94 27.00 166.00
C 26.75 167.99 25.31 169.46 27.00 172.00
C 33.30 177.28 48.32 178.33 44.78 190.22 C 41.24 202.12 44.87 211.83 57.07 212.93 C 69.28 214.02 81.27 212.04 93.00 213.00 C 104.73 213.96 111.77 212.16 124.00 213.00 C 136.23 213.84 148.69 210.62 161.00 212.00 C 173.31 213.38 178.63 205.71 186.00 198.00
C 186.25 197.74 186.79 197.26 187.00 197.00
C 187.59 188.76 191.58 178.78 195.00 170.00
C 189.34 167.21 196.18 155.40 191.30 150.70 C 186.43 145.99 186.35 140.13 181.00 142.00
C 181.47 139.00 179.82 136.59 181.00 134.00
C 188.32 132.54 195.83 122.83 204.77 119.77 C 213.72 116.72 221.32 111.16 228.00 104.00
C 218.24 109.03 207.68 114.17 198.70 120.70 C 189.72 127.22 178.42 131.44 174.00 142.00
C 187.95 144.37 193.55 160.90 188.20 171.75 C 182.84 182.61 188.26 200.27 176.00 207.00 Z"/>
</g>
<g fill="None" fill-opacity="0.0" stroke="#ACA5A3" stroke-opacity="1.00" stroke-width="0.3"><path d="
M 116.00 111.00 
C 115.55 112.12 114.98 112.37 114.00 113.00
C 113.69 113.20 113.27 113.83 113.00 114.00
C 113.78 115.85 124.73 110.91 128.01 111.01 C 131.29 111.11 140.73 106.26 144.00 109.00
C 141.68 109.74 138.52 109.94 137.00 112.00
C 140.79 110.96 144.70 110.80 148.00 109.00
C 143.74 107.80 152.65 107.26 154.00 106.00
C 151.60 106.36 145.71 104.96 143.00 105.00
C 139.03 105.06 132.88 106.99 129.07 108.07 C 125.27 109.16 119.25 109.21 116.00 111.00 Z"/>
</g>
<g fill="None" fill-opacity="0.0" stroke="#A09997" stroke-opacity="1.00" stroke-width="0.3"><path d="
M 191.00 109.00 
C 171.70 116.04 152.46 123.34 133.00 130.00
C 133.39 130.14 133.77 131.91 134.00 132.00
C 134.45 131.84 135.55 131.85 136.00 132.00
C 147.42 126.53 160.92 122.47 173.00 121.00
C 176.18 119.17 183.79 115.27 186.77 113.77 C 189.75 112.27 197.46 105.45 200.00 107.00
C 197.79 104.64 193.55 108.07 191.00 109.00 Z"/>
</g>
<g fill="None" fill-opacity="0.0" stroke="#4A474A" stroke-opacity="1.00" stroke-width="0.3"><path d="
M 98.00 109.00 
C 97.78 112.44 95.20 116.95 95.00 120.00 C 94.80 123.05 91.62 128.53 93.00 131.00
C 100.09 127.95 115.32 125.91 120.00 119.00
C 114.59 118.11 110.15 121.01 105.00 121.00
C 111.85 116.75 104.26 113.26 104.00 108.00
C 102.20 107.48 99.37 107.10 98.00 109.00 Z"/>
</g>
<g fill="None" fill-opacity="0.0" stroke="#51272B" stroke-opacity="1.00" stroke-width="0.3"><path d="
M 200.00 111.00 
C 188.51 120.95 171.56 122.76 159.70 131.70 C 147.83 140.63 129.02 144.53 124.00 159.00
C 126.43 158.52 127.53 160.99 129.00 162.00
C 130.13 162.14 130.36 162.83 131.00 163.00
C 135.50 163.00 141.67 162.69 146.00 163.00 C 150.33 163.31 157.29 162.18 161.00 163.00 C 164.71 163.82 174.38 160.78 176.00 164.00
C 176.58 165.15 175.33 167.88 175.00 169.00
C 174.59 170.39 174.33 171.53 174.00 173.00
C 174.01 180.54 174.93 190.07 172.00 198.00 C 169.07 205.93 154.15 200.99 146.00 202.00 C 137.85 203.01 126.12 201.55 117.00 202.00 C 107.88 202.45 96.54 201.76 87.00 202.00 C 77.46 202.24 66.66 201.82 57.00 202.00
C 58.38 191.89 56.41 187.63 59.99 176.99 C 63.57 166.36 56.44 163.11 45.00 164.00
C 41.91 164.17 39.26 165.60 36.00 165.00
C 37.06 155.33 40.53 145.69 49.00 140.00
C 40.10 143.75 37.14 153.16 33.00 161.00
C 33.07 163.59 30.37 165.28 31.00 168.00
C 35.11 168.60 42.19 167.19 46.00 168.00 C 49.81 168.81 56.94 165.90 59.00 169.00
C 61.44 172.67 55.46 182.44 56.07 187.07 C 56.68 191.70 50.85 198.83 52.00 204.00
C 75.50 204.67 100.32 202.67 123.00 205.00
C 128.67 205.00 134.33 205.00 140.00 205.00
C 151.33 205.00 162.67 205.00 174.00 205.00
C 174.00 203.33 174.00 201.67 174.00 200.00
C 172.72 185.77 182.86 173.46 181.00 159.00
C 163.71 157.18 143.27 162.75 128.00 156.00
C 127.05 153.72 137.86 148.83 141.70 146.70 C 145.53 144.56 152.80 140.07 157.69 137.69 C 162.59 135.32 169.00 130.89 174.23 128.23 C 179.46 125.57 184.80 121.99 190.23 119.23 C 195.66 116.47 201.63 113.08 207.00 110.00
C 208.31 109.25 209.67 108.73 211.00 108.00
C 208.32 108.95 203.11 109.02 200.00 111.00 Z"/>
</g>
<g fill="None" fill-opacity="0.0" stroke="#362023" stroke-opacity="1.00" stroke-width="0.3"><path d="
M 18.00 169.00 
C 18.52 172.83 21.61 173.83 20.00 179.00
C 24.88 176.93 27.84 184.05 33.00 185.00
C 33.74 195.47 39.06 203.52 42.00 214.00
C 48.81 215.34 55.12 223.20 61.70 222.64 C 68.28 222.07 74.94 222.36 80.70 222.65 C 86.45 222.94 96.81 221.40 102.00 226.00
C 112.64 218.98 126.15 227.83 137.00 222.00
C 149.34 228.77 163.38 220.59 177.00 219.00
C 180.30 214.94 185.97 210.75 189.60 206.75 C 193.23 202.74 190.07 196.23 196.00 194.00
C 195.68 189.86 196.12 186.54 196.00 182.00
C 195.15 184.74 192.15 185.75 190.31 188.30 C 188.46 190.85 189.15 194.25 187.00 197.00
C 186.79 197.26 186.25 197.74 186.00 198.00
C 190.19 200.92 181.54 202.51 180.25 207.25 C 178.95 211.98 173.44 215.60 170.00 219.00
C 162.81 215.92 155.96 221.95 147.00 220.00 C 138.04 218.05 131.61 218.05 123.77 218.21 C 115.93 218.37 107.28 222.34 101.00 218.00
C 94.04 223.23 84.48 216.81 73.99 218.01 C 63.50 219.21 51.76 215.09 43.00 210.00
C 42.76 201.49 38.78 192.81 41.00 185.00
C 33.52 181.49 25.87 175.96 21.00 169.00
C 21.38 166.89 24.38 163.97 20.00 164.00
C 20.38 150.07 24.00 138.45 38.00 130.00
C 43.62 123.76 52.42 119.09 58.00 113.00
C 57.73 111.14 57.01 109.94 57.00 108.00
C 54.94 108.72 51.57 110.54 54.00 113.00
C 51.55 111.22 46.68 115.79 50.00 117.00
C 43.44 116.30 38.95 122.36 33.25 126.25 C 27.54 130.13 24.36 135.84 21.31 141.31 C 18.25 146.77 19.14 156.93 16.00 159.00
C 18.40 161.38 17.45 164.97 18.00 169.00 Z"/>
</g>
<g fill="None" fill-opacity="0.0" stroke="#89807F" stroke-opacity="1.00" stroke-width="0.3"><path d="
M 113.00 114.00 
C 111.64 114.42 110.67 115.80 110.00 117.00
C 118.60 116.72 128.32 116.34 137.00 112.00
C 138.52 109.94 141.68 109.74 144.00 109.00
C 140.73 106.26 131.29 111.11 128.01 111.01 C 124.73 110.91 113.78 115.85 113.00 114.00 Z"/>
</g>
<g fill="None" fill-opacity="0.0" stroke="#D06464" stroke-opacity="1.00" stroke-width="0.3"><path d="
M 128.00 156.00 
C 132.96 158.61 141.31 154.78 147.00 156.00 C 152.69 157.22 160.00 155.36 166.00 156.00 C 172.00 156.64 178.92 155.52 185.00 156.00
C 182.10 170.77 177.50 185.09 175.00 200.00
C 175.51 201.53 176.67 201.29 177.00 202.00
C 180.63 185.64 185.58 169.65 188.00 153.00
C 185.33 153.00 182.67 153.00 180.00 153.00
C 169.33 153.00 158.67 153.00 148.00 153.00
C 144.33 153.00 140.67 153.00 137.00 153.00
C 141.98 148.84 148.62 146.81 154.00 143.00
C 160.50 139.34 167.45 135.89 174.00 132.00
C 184.88 125.54 196.15 119.17 207.00 113.00
C 206.58 113.53 207.30 109.67 207.00 110.00
C 201.63 113.08 195.66 116.47 190.23 119.23 C 184.80 121.99 179.46 125.57 174.23 128.23 C 169.00 130.89 162.59 135.32 157.69 137.69 C 152.80 140.07 145.53 144.56 141.70 146.70 C 137.86 148.83 127.05 153.72 128.00 156.00 Z"/>
</g>
<g fill="None" fill-opacity="0.0" stroke="#3A2D2F" stroke-opacity="1.00" stroke-width="0.3"><path d="
M 197.00 153.00 
C 198.53 153.25 199.18 155.55 201.00 155.00
C 197.46 151.16 198.07 146.18 197.00 141.00
C 207.50 134.26 218.56 128.52 226.00 119.00
C 224.32 119.62 224.35 120.87 223.00 120.00
C 219.89 120.22 222.31 118.28 223.00 117.00
C 215.67 117.54 211.86 125.95 204.67 128.67 C 197.48 131.39 191.22 135.75 191.00 144.00
C 195.33 143.37 195.86 151.11 197.00 153.00 Z"/>
</g>
<g fill="None" fill-opacity="0.0" stroke="#706163" stroke-opacity="1.00" stroke-width="0.3"><path d="
M 136.00 132.00 
C 139.25 133.05 141.47 131.29 145.00 131.00
C 139.35 141.17 121.77 142.36 117.00 151.00
C 136.26 142.09 154.66 131.55 173.00 121.00
C 160.92 122.47 147.42 126.53 136.00 132.00 Z"/>
</g>
<g fill="None" fill-opacity="0.0" stroke="#451E20" stroke-opacity="1.00" stroke-width="0.3"><path d="
M 186.00 198.00 
C 178.63 205.71 173.31 213.38 161.00 212.00 C 148.69 210.62 136.23 213.84 124.00 213.00 C 111.77 212.16 104.73 213.96 93.00 213.00 C 81.27 212.04 69.28 214.02 57.07 212.93 C 44.87 211.83 41.24 202.12 44.78 190.22 C 48.32 178.33 33.30 177.28 27.00 172.00
C 20.61 166.65 26.22 158.18 25.93 151.08 C 25.64 143.97 30.83 138.63 36.00 133.00
C 36.71 132.22 37.31 130.89 38.00 130.00
C 24.00 138.45 20.38 150.07 20.00 164.00
C 24.38 163.97 21.38 166.89 21.00 169.00
C 25.87 175.96 33.52 181.49 41.00 185.00
C 38.78 192.81 42.76 201.49 43.00 210.00
C 51.76 215.09 63.50 219.21 73.99 218.01 C 84.48 216.81 94.04 223.23 101.00 218.00
C 107.28 222.34 115.93 218.37 123.77 218.21 C 131.61 218.05 138.04 218.05 147.00 220.00 C 155.96 221.95 162.81 215.92 170.00 219.00
C 173.44 215.60 178.95 211.98 180.25 207.25 C 181.54 202.51 190.19 200.92 186.00 198.00 Z"/>
</g>
<g fill="None" fill-opacity="0.0" stroke="#807979" stroke-opacity="1.00" stroke-width="0.3"><path d="
M 113.00 146.00 
C 113.08 147.00 112.55 148.73 114.00 149.00
C 113.54 136.73 125.44 135.42 134.00 132.00
C 133.77 131.91 133.39 130.14 133.00 130.00
C 127.69 131.82 125.07 133.22 119.22 134.22 C 113.38 135.23 114.25 141.45 113.00 146.00 Z"/>
</g>
<g fill="None" fill-opacity="0.0" stroke="#595052" stroke-opacity="1.00" stroke-width="0.3"><path d="
M 136.00 132.00 
C 135.55 131.85 134.45 131.84 134.00 132.00
C 125.44 135.42 113.54 136.73 114.00 149.00
C 112.55 148.73 113.08 147.00 113.00 146.00
C 111.12 147.88 110.87 151.21 111.00 154.00
C 113.45 154.23 115.21 151.83 117.00 151.00
C 121.77 142.36 139.35 141.17 145.00 131.00
C 141.47 131.29 139.25 133.05 136.00 132.00 Z"/>
</g>
<g fill="None" fill-opacity="0.0" stroke="#9E2B2C" stroke-opacity="1.00" stroke-width="0.3"><path d="
M 154.00 143.00 
C 151.38 145.09 148.17 149.33 148.00 153.00
C 158.67 153.00 169.33 153.00 180.00 153.00
C 177.25 152.73 157.19 149.71 159.70 145.70 C 162.21 141.70 170.41 135.32 174.00 132.00
C 167.45 135.89 160.50 139.34 154.00 143.00 Z"/>
</g>
<g fill="None" fill-opacity="0.0" stroke="#827E7F" stroke-opacity="1.00" stroke-width="0.3"><path d="
M 53.00 156.00 
C 51.08 156.58 48.81 157.25 47.00 158.00
C 59.19 156.15 73.43 153.75 86.00 149.00
C 85.60 159.40 81.06 168.72 80.00 179.00
C 83.64 170.87 85.10 162.41 87.32 153.32 C 89.55 144.24 101.58 145.84 108.00 140.00
C 106.74 137.71 97.53 142.84 94.22 143.22 C 90.91 143.61 84.74 146.98 80.68 147.68 C 76.62 148.37 71.33 150.85 67.07 152.07 C 62.82 153.30 57.32 154.71 53.00 156.00 Z"/>
</g>
<g fill="None" fill-opacity="0.0" stroke="#504B4F" stroke-opacity="1.00" stroke-width="0.3"><path d="
M 47.00 158.00 
C 46.17 158.34 44.23 159.11 44.00 160.00
C 51.69 158.67 60.41 161.77 68.00 160.00
C 68.48 158.91 67.25 156.94 71.00 158.00
C 67.33 171.29 65.32 185.37 60.00 198.00
C 62.16 199.43 70.30 198.00 73.00 198.00
C 83.63 196.97 96.03 197.32 106.89 195.89 C 117.75 194.46 124.10 192.88 133.00 195.00
C 134.82 188.98 141.88 196.62 145.00 191.00
C 146.10 197.68 155.30 190.80 159.00 197.00
C 160.71 195.81 163.12 194.35 163.00 192.00
C 159.21 189.14 155.84 185.12 154.00 181.00
C 153.76 181.25 153.00 181.00 153.00 181.00
C 147.88 184.79 138.46 180.61 132.00 182.00 C 125.54 183.39 115.82 180.13 110.00 183.00
C 113.00 182.50 115.55 183.57 118.00 185.00
C 108.56 187.55 109.21 191.64 100.25 194.59 C 91.28 197.53 73.20 193.82 64.00 194.00
C 70.05 190.71 73.86 184.01 80.00 181.00
C 88.77 176.52 101.24 180.75 108.00 173.00
C 106.60 171.03 108.78 168.50 108.00 166.00
C 105.17 167.15 102.29 165.45 99.00 166.00
C 99.67 164.80 100.64 163.42 102.00 163.00
C 109.91 160.54 122.65 163.00 131.00 163.00
C 130.36 162.83 130.13 162.14 129.00 162.00
C 120.33 162.00 111.67 162.00 103.00 162.00
C 102.44 158.50 105.46 153.42 105.22 150.22 C 104.98 147.03 109.45 142.62 108.00 140.00
C 101.58 145.84 89.55 144.24 87.32 153.32 C 85.10 162.41 83.64 170.87 80.00 179.00
C 81.06 168.72 85.60 159.40 86.00 149.00
C 73.43 153.75 59.19 156.15 47.00 158.00 Z"/>
</g>
<g fill="None" fill-opacity="0.0" stroke="#1F1D22" stroke-opacity="1.00" stroke-width="0.3"><path d="
M 0.00 146.00 
L 0.00 256.00
L 157.00 256.00
C 158.04 253.28 161.49 252.99 162.00 250.00
C 164.21 251.06 160.34 254.38 164.00 255.00
C 166.70 249.05 162.88 241.60 156.00 245.00
C 157.47 239.14 160.80 242.97 164.00 242.00
C 162.97 239.09 159.48 239.08 165.00 239.00
C 165.89 235.60 165.92 233.45 164.00 231.00
C 169.86 231.55 173.04 224.32 178.00 223.00
C 178.00 220.34 175.68 221.46 177.00 219.00
C 163.38 220.59 149.34 228.77 137.00 222.00
C 126.15 227.83 112.64 218.98 102.00 226.00
C 96.81 221.40 86.45 222.94 80.70 222.65 C 74.94 222.36 68.28 222.07 61.70 222.64 C 55.12 223.20 48.81 215.34 42.00 214.00
C 39.06 203.52 33.74 195.47 33.00 185.00
C 27.84 184.05 24.88 176.93 20.00 179.00
C 21.61 173.83 18.52 172.83 18.00 169.00
C 16.07 168.47 14.76 170.05 13.00 170.00
C 13.56 166.41 12.97 162.01 11.00 159.00
C 11.73 156.97 14.19 156.04 15.00 154.00
C 7.56 155.78 16.00 149.62 13.00 146.00
C 9.56 146.02 9.60 150.73 6.00 151.00
C 4.38 147.89 9.07 144.78 4.00 143.00
C 2.67 144.15 1.94 145.45 0.00 146.00 Z"/>
</g>
<g fill="None" fill-opacity="0.0" stroke="#C72127" stroke-opacity="1.00" stroke-width="0.3"><path d="
M 148.00 153.00 
C 148.17 149.33 151.38 145.09 154.00 143.00
C 148.62 146.81 141.98 148.84 137.00 153.00
C 140.67 153.00 144.33 153.00 148.00 153.00 Z"/>
</g>
<g fill="None" fill-opacity="0.0" stroke="#802D32" stroke-opacity="1.00" stroke-width="0.3"><path d="
M 174.00 200.00 
C 174.02 200.09 175.00 200.00 175.00 200.00
C 177.50 185.09 182.10 170.77 185.00 156.00
C 178.92 155.52 172.00 156.64 166.00 156.00 C 160.00 155.36 152.69 157.22 147.00 156.00 C 141.31 154.78 132.96 158.61 128.00 156.00
C 143.27 162.75 163.71 157.18 181.00 159.00
C 182.86 173.46 172.72 185.77 174.00 200.00 Z"/>
</g>
<g fill="None" fill-opacity="0.0" stroke="#70676A" stroke-opacity="1.00" stroke-width="0.3"><path d="
M 68.00 160.00 
C 66.13 164.28 64.10 175.04 63.07 179.07 C 62.05 183.11 57.27 196.19 60.00 198.00
C 65.32 185.37 67.33 171.29 71.00 158.00
C 67.25 156.94 68.48 158.91 68.00 160.00 Z"/>
</g>
<g fill="None" fill-opacity="0.0" stroke="#2A1A1F" stroke-opacity="1.00" stroke-width="0.3"><path d="
M 45.00 164.00 
C 56.44 163.11 63.57 166.36 59.99 176.99 C 56.41 187.63 58.38 191.89 57.00 202.00
C 66.66 201.82 77.46 202.24 87.00 202.00 C 96.54 201.76 107.88 202.45 117.00 202.00 C 126.12 201.55 137.85 203.01 146.00 202.00 C 154.15 200.99 169.07 205.93 172.00 198.00 C 174.93 190.07 174.01 180.54 174.00 173.00
C 172.15 181.35 170.14 189.70 168.00 198.00
C 136.33 198.00 104.67 198.00 73.00 198.00
C 70.30 198.00 62.16 199.43 60.00 198.00
C 57.27 196.19 62.05 183.11 63.07 179.07 C 64.10 175.04 66.13 164.28 68.00 160.00
C 60.41 161.77 51.69 158.67 44.00 160.00
C 44.02 159.91 45.14 164.18 45.00 164.00 Z"/>
</g>
<g fill="None" fill-opacity="0.0" stroke="#6D686A" stroke-opacity="1.00" stroke-width="0.3"><path d="
M 80.00 181.00 
C 82.98 180.32 86.93 181.00 90.00 181.00
C 98.18 180.21 107.15 179.00 116.00 179.00
C 116.66 177.02 118.69 172.38 121.00 174.00
C 119.20 170.85 120.31 168.16 119.00 165.00
C 116.70 165.00 110.96 164.40 109.00 165.00 C 107.04 165.60 99.18 164.40 102.00 163.00
C 100.64 163.42 99.67 164.80 99.00 166.00
C 102.29 165.45 105.17 167.15 108.00 166.00
C 108.78 168.50 106.60 171.03 108.00 173.00
C 101.24 180.75 88.77 176.52 80.00 181.00 Z"/>
</g>
<g fill="None" fill-opacity="0.0" stroke="#ACA6A2" stroke-opacity="1.00" stroke-width="0.3"><path d="
M 119.00 165.00 
C 129.17 165.00 140.66 164.17 150.00 166.00
C 144.67 165.77 143.26 168.19 138.00 168.00
C 137.89 171.31 129.83 174.75 134.00 179.00
C 128.00 179.00 122.00 179.00 116.00 179.00
C 107.15 179.00 98.18 180.21 90.00 181.00
C 111.00 181.00 132.00 180.99 153.00 181.00
C 153.00 181.00 153.76 181.25 154.00 181.00
C 159.73 175.02 167.74 171.06 174.00 166.00
C 174.53 165.26 174.88 164.06 176.00 164.00
C 174.38 160.78 164.71 163.82 161.00 163.00 C 157.29 162.18 150.33 163.31 146.00 163.00 C 141.67 162.69 135.50 163.00 131.00 163.00
C 122.65 163.00 109.91 160.54 102.00 163.00
C 99.18 164.40 107.04 165.60 109.00 165.00 C 110.96 164.40 116.70 165.00 119.00 165.00 Z"/>
</g>
<g fill="None" fill-opacity="0.0" stroke="#867771" stroke-opacity="1.00" stroke-width="0.3"><path d="
M 174.00 166.00 
C 173.13 167.23 171.86 168.36 172.00 170.00
C 172.94 169.43 173.82 168.85 175.00 169.00
C 175.33 167.88 176.58 165.15 176.00 164.00
C 174.88 164.06 174.53 165.26 174.00 166.00 Z"/>
</g>
<g fill="None" fill-opacity="0.0" stroke="#877F7F" stroke-opacity="1.00" stroke-width="0.3"><path d="
M 116.00 179.00 
C 122.00 179.00 128.00 179.00 134.00 179.00
C 129.83 174.75 137.89 171.31 138.00 168.00
C 143.26 168.19 144.67 165.77 150.00 166.00
C 140.66 164.17 129.17 165.00 119.00 165.00
C 120.31 168.16 119.20 170.85 121.00 174.00
C 118.69 172.38 116.66 177.02 116.00 179.00 Z"/>
</g>
<g fill="None" fill-opacity="0.0" stroke="#615A5B" stroke-opacity="1.00" stroke-width="0.3"><path d="
M 154.00 181.00 
C 155.84 185.12 159.21 189.14 163.00 192.00
C 163.12 194.35 160.71 195.81 159.00 197.00
C 155.30 190.80 146.10 197.68 145.00 191.00
C 141.88 196.62 134.82 188.98 133.00 195.00
C 124.10 192.88 117.75 194.46 106.89 195.89 C 96.03 197.32 83.63 196.97 73.00 198.00
C 104.67 198.00 136.33 198.00 168.00 198.00
C 170.14 189.70 172.15 181.35 174.00 173.00
C 174.33 171.53 174.59 170.39 175.00 169.00
C 173.82 168.85 172.94 169.43 172.00 170.00
C 171.86 168.36 173.13 167.23 174.00 166.00
C 167.74 171.06 159.73 175.02 154.00 181.00 Z"/>
</g>
<g fill="None" fill-opacity="0.0" stroke="#72191E" stroke-opacity="1.00" stroke-width="0.3"><path d="
M 123.00 205.00 
C 100.32 202.67 75.50 204.67 52.00 204.00
C 50.85 198.83 56.68 191.70 56.07 187.07 C 55.46 182.44 61.44 172.67 59.00 169.00
C 55.26 180.35 52.51 192.96 50.00 205.00
C 74.33 205.00 98.67 205.00 123.00 205.00 Z"/>
</g>
<g fill="None" fill-opacity="0.0" stroke="#942022" stroke-opacity="1.00" stroke-width="0.3"><path d="
M 46.00 205.00 
C 50.11 194.44 51.77 182.18 55.00 171.00
C 46.77 169.37 37.08 173.17 29.00 171.00
C 34.72 174.36 42.86 172.70 49.00 176.00
C 50.78 185.78 44.64 195.54 46.00 205.00 Z"/>
</g>
<g fill="None" fill-opacity="0.0" stroke="#39383C" stroke-opacity="1.00" stroke-width="0.3"><path d="
M 153.00 181.00 
C 132.00 180.99 111.00 181.00 90.00 181.00
C 86.93 181.00 82.98 180.32 80.00 181.00
C 73.86 184.01 70.05 190.71 64.00 194.00
C 73.20 193.82 91.28 197.53 100.25 194.59 C 109.21 191.64 108.56 187.55 118.00 185.00
C 115.55 183.57 113.00 182.50 110.00 183.00
C 115.82 180.13 125.54 183.39 132.00 182.00 C 138.46 180.61 147.88 184.79 153.00 181.00 Z"/>
</g>
<g fill="None" fill-opacity="0.0" stroke="#AF6869" stroke-opacity="1.00" stroke-width="0.3"><path d="
M 140.00 205.00 
C 140.84 205.57 140.84 207.43 140.00 208.00
C 149.99 208.00 160.02 208.28 170.00 208.00
C 172.43 207.93 174.13 208.03 176.00 207.00
C 176.45 206.47 176.79 202.85 177.00 202.00
C 176.67 201.29 175.51 201.53 175.00 200.00
C 175.00 200.00 174.02 200.09 174.00 200.00
C 174.00 201.67 174.00 203.33 174.00 205.00
C 162.67 205.00 151.33 205.00 140.00 205.00 Z"/>
</g>
<g fill="None" fill-opacity="0.0" stroke="#861F20" stroke-opacity="1.00" stroke-width="0.3"><path d="
M 170.00 208.00 
C 160.02 208.28 149.99 208.00 140.00 208.00
C 129.95 208.00 118.96 208.52 109.00 208.00 C 99.04 207.48 87.62 209.40 78.00 208.00 C 68.38 206.60 56.85 211.34 48.00 208.00
C 58.44 215.53 75.06 209.27 88.00 211.00 C 100.94 212.73 117.00 210.12 130.00 210.00 C 143.00 209.88 157.93 210.54 170.00 208.00 Z"/>
</g>
<g fill="#2D2D32" fill-opacity="1.00" stroke="None">
<path d="
M 0.00 146.00 
C 1.94 145.45 2.67 144.15 4.00 143.00
C 9.07 144.78 4.38 147.89 6.00 151.00
C 9.60 150.73 9.56 146.02 13.00 146.00
C 16.00 149.62 7.56 155.78 15.00 154.00
C 14.19 156.04 11.73 156.97 11.00 159.00
C 12.97 162.01 13.56 166.41 13.00 170.00
C 14.76 170.05 16.07 168.47 18.00 169.00
C 17.45 164.97 18.40 161.38 16.00 159.00
C 19.14 156.93 18.25 146.77 21.31 141.31 C 24.36 135.84 27.54 130.13 33.25 126.25 C 38.95 122.36 43.44 116.30 50.00 117.00
C 46.68 115.79 51.55 111.22 54.00 113.00
C 51.57 110.54 54.94 108.72 57.00 108.00
C 56.97 101.02 59.08 91.45 64.00 86.00
C 61.95 85.17 60.42 73.77 63.59 71.25 C 66.76 68.73 67.56 63.40 68.93 57.93 C 70.29 52.45 74.97 47.81 77.77 42.77 C 80.57 37.73 85.18 40.17 89.10 35.10 C 93.02 30.03 101.57 37.54 106.22 33.78 C 110.88 30.02 118.41 31.74 123.67 31.67 C 128.94 31.59 132.18 32.01 138.00 32.00
C 140.20 30.51 140.02 29.57 138.00 28.00
C 141.50 26.85 143.11 22.63 147.00 22.00
C 144.08 20.01 144.61 19.65 149.00 17.00
C 147.83 13.17 150.39 11.95 148.00 9.00
C 150.07 10.66 153.07 9.89 150.00 8.00
C 153.70 6.52 156.22 3.77 159.00 0.00
L 0.00 0.00
L 0.00 146.00 Z"/>
</g>
<g fill="#424247" fill-opacity="1.00" stroke="None">
<path d="
M 138.00 32.00 
C 143.11 33.77 143.65 43.80 150.00 42.00
C 151.24 45.48 152.38 48.35 149.00 51.00
C 156.91 49.27 148.16 56.05 150.35 58.69 C 152.55 61.34 153.27 66.23 151.00 70.00
C 153.29 70.50 152.45 73.21 155.00 70.00
C 154.37 77.98 160.41 75.83 165.02 75.02 C 169.64 74.22 174.93 79.77 180.00 75.00
C 180.47 74.89 181.00 75.00 181.00 75.00
C 182.48 70.92 193.32 73.82 194.00 68.00
C 197.82 73.06 202.93 65.24 207.00 64.00
C 203.17 67.76 208.53 66.12 211.00 68.00
C 208.39 63.59 216.98 63.28 214.00 60.00
C 217.81 60.43 220.68 55.99 221.00 61.00
C 227.91 59.27 236.62 62.17 246.00 63.00
C 252.39 68.74 248.09 77.50 242.00 76.00
C 242.18 79.55 240.12 82.39 238.00 85.00
C 241.80 87.28 244.68 89.27 249.00 89.00
C 247.24 93.88 243.36 94.76 241.00 99.00
C 240.44 100.34 241.08 101.69 241.00 102.00
C 243.04 100.96 247.33 100.27 247.00 104.00
C 249.44 102.22 251.31 102.66 254.00 102.00
C 251.24 103.82 252.95 107.10 256.00 107.00
L 256.00 0.00
L 159.00 0.00
C 156.22 3.77 153.70 6.52 150.00 8.00
C 153.07 9.89 150.07 10.66 148.00 9.00
C 150.39 11.95 147.83 13.17 149.00 17.00
C 144.61 19.65 144.08 20.01 147.00 22.00
C 143.11 22.63 141.50 26.85 138.00 28.00
C 140.02 29.57 140.20 30.51 138.00 32.00 Z"/>
</g>
<g fill="#4B3538" fill-opacity="1.00" stroke="None">
<path d="
M 57.00 108.00 
C 57.01 109.94 57.73 111.14 58.00 113.00
C 52.42 119.09 43.62 123.76 38.00 130.00
C 37.31 130.89 36.71 132.22 36.00 133.00
C 50.62 122.56 61.96 114.09 65.99 95.99 C 70.02 77.89 75.31 64.51 79.00 46.00
C 88.97 38.01 103.60 39.75 114.74 38.60 C 125.89 37.44 137.68 35.42 148.00 47.00
C 144.03 53.21 148.94 60.86 145.86 67.92 C 142.77 74.99 147.89 86.96 158.03 82.98 C 168.16 79.00 171.06 81.69 180.00 75.00
C 174.93 79.77 169.64 74.22 165.02 75.02 C 160.41 75.83 154.37 77.98 155.00 70.00
C 152.45 73.21 153.29 70.50 151.00 70.00
C 153.27 66.23 152.55 61.34 150.35 58.69 C 148.16 56.05 156.91 49.27 149.00 51.00
C 152.38 48.35 151.24 45.48 150.00 42.00
C 143.65 43.80 143.11 33.77 138.00 32.00
C 132.18 32.01 128.94 31.59 123.67 31.67 C 118.41 31.74 110.88 30.02 106.22 33.78 C 101.57 37.54 93.02 30.03 89.10 35.10 C 85.18 40.17 80.57 37.73 77.77 42.77 C 74.97 47.81 70.29 52.45 68.93 57.93 C 67.56 63.40 66.76 68.73 63.59 71.25 C 60.42 73.77 61.95 85.17 64.00 86.00
C 59.08 91.45 56.97 101.02 57.00 108.00 Z"/>
</g>
<g fill="#613739" fill-opacity="1.00" stroke="None">
<path d="
M 36.00 133.00 
C 30.83 138.63 25.64 143.97 25.93 151.08 C 26.22 158.18 20.61 166.65 27.00 172.00
C 25.31 169.46 26.75 167.99 27.00 166.00
C 26.97 158.03 28.43 146.75 33.75 140.75 C 39.08 134.76 44.90 131.63 51.75 126.75 C 58.59 121.86 62.83 118.07 65.31 110.31 C 67.78 102.54 69.92 92.89 71.99 84.99 C 74.07 77.09 74.61 68.74 76.33 61.33 C 78.05 53.92 82.17 43.94 90.00 43.00 C 97.83 42.06 113.75 41.66 121.00 42.00 C 128.25 42.34 143.14 40.15 143.78 49.22 C 144.42 58.30 140.99 66.16 141.00 76.00 C 141.01 85.84 149.81 88.01 157.25 86.20 C 164.68 84.39 174.65 79.79 179.00 82.00
C 185.82 73.45 196.77 79.29 206.00 77.00 C 215.23 74.71 224.49 68.46 235.00 73.00
C 235.78 72.77 237.18 72.98 238.00 73.00
C 233.35 69.94 225.50 69.74 219.25 70.60 C 213.01 71.46 205.32 73.95 199.00 74.00 C 192.67 74.05 188.94 77.13 181.00 75.00
C 181.00 75.00 180.47 74.89 180.00 75.00
C 171.06 81.69 168.16 79.00 158.03 82.98 C 147.89 86.96 142.77 74.99 145.86 67.92 C 148.94 60.86 144.03 53.21 148.00 47.00
C 137.68 35.42 125.89 37.44 114.74 38.60 C 103.60 39.75 88.97 38.01 79.00 46.00
C 75.31 64.51 70.02 77.89 65.99 95.99 C 61.96 114.09 50.62 122.56 36.00 133.00 Z"/>
</g>
<g fill="#813E3E" fill-opacity="1.00" stroke="None">
<path d="
M 27.00 166.00 
C 27.00 166.94 26.84 168.08 27.00 169.00
C 26.91 167.94 28.83 163.85 29.00 162.00
C 30.20 148.76 35.07 135.83 49.08 131.08 C 63.09 126.33 67.55 114.72 70.31 101.31 C 73.06 87.89 76.80 74.05 82.00 62.00
C 82.92 57.83 83.14 51.84 85.00 48.00
C 87.39 43.05 96.61 44.90 102.00 45.00 C 107.39 45.10 117.13 44.11 122.00 45.00 C 126.87 45.89 138.54 42.25 141.00 46.00
C 142.41 48.15 138.93 54.56 138.67 57.67 C 138.42 60.79 136.56 66.41 136.00 70.00 C 135.45 73.59 133.86 78.30 133.00 82.00
C 132.68 83.37 132.36 84.60 132.00 86.00
C 132.05 86.31 137.21 89.93 134.00 92.00
C 137.20 93.14 140.77 92.87 144.00 94.00
C 169.60 88.04 195.44 83.23 221.00 77.00
C 224.97 76.03 230.23 75.52 234.00 74.00
C 234.26 73.90 234.65 73.11 235.00 73.00
C 224.49 68.46 215.23 74.71 206.00 77.00 C 196.77 79.29 185.82 73.45 179.00 82.00
C 174.65 79.79 164.68 84.39 157.25 86.20 C 149.81 88.01 141.01 85.84 141.00 76.00 C 140.99 66.16 144.42 58.30 143.78 49.22 C 143.14 40.15 128.25 42.34 121.00 42.00 C 113.75 41.66 97.83 42.06 90.00 43.00 C 82.17 43.94 78.05 53.92 76.33 61.33 C 74.61 68.74 74.07 77.09 71.99 84.99 C 69.92 92.89 67.78 102.54 65.31 110.31 C 62.83 118.07 58.59 121.86 51.75 126.75 C 44.90 131.63 39.08 134.76 33.75 140.75 C 28.43 146.75 26.97 158.03 27.00 166.00 Z"/>
</g>
<g fill="#9F5A57" fill-opacity="1.00" stroke="None">
<path d="
M 85.00 48.00 
C 87.98 43.66 96.70 46.54 102.00 46.00 C 107.30 45.46 115.44 46.00 121.00 46.00
C 127.67 46.00 134.33 46.00 141.00 46.00
C 138.54 42.25 126.87 45.89 122.00 45.00 C 117.13 44.11 107.39 45.10 102.00 45.00 C 96.61 44.90 87.39 43.05 85.00 48.00 Z"/>
</g>
<g fill="#D9827E" fill-opacity="1.00" stroke="None">
<path d="
M 85.00 48.00 
C 83.14 51.84 82.92 57.83 82.00 62.00
C 80.38 69.29 78.81 76.70 77.00 84.00
C 76.84 84.35 80.67 78.72 81.00 78.00
C 81.86 73.94 82.65 67.00 84.33 63.33 C 86.01 59.66 85.54 51.61 88.00 49.00
C 91.17 45.64 100.00 48.57 105.00 48.00 C 110.00 47.43 118.69 47.79 124.00 48.00
C 123.37 47.82 121.59 46.15 121.00 46.00
C 115.44 46.00 107.30 45.46 102.00 46.00 C 96.70 46.54 87.98 43.66 85.00 48.00 Z"/>
</g>
<g fill="#D59F95" fill-opacity="1.00" stroke="None">
<path d="
M 124.00 48.00 
C 125.84 48.07 127.82 48.83 129.00 49.00
C 131.67 49.00 134.33 49.00 137.00 49.00
C 135.51 60.87 131.47 72.09 130.00 84.00
C 130.58 83.25 132.54 82.71 133.00 82.00
C 133.86 78.30 135.45 73.59 136.00 70.00 C 136.56 66.41 138.42 60.79 138.67 57.67 C 138.93 54.56 142.41 48.15 141.00 46.00
C 134.33 46.00 127.67 46.00 121.00 46.00
C 121.59 46.15 123.37 47.82 124.00 48.00 Z"/>
</g>
<g fill="#9F5E5E" fill-opacity="1.00" stroke="None">
<path d="
M 88.00 49.00 
C 101.67 49.00 115.33 49.00 129.00 49.00
C 127.82 48.83 125.84 48.07 124.00 48.00
C 118.69 47.79 110.00 47.43 105.00 48.00 C 100.00 48.57 91.17 45.64 88.00 49.00 Z"/>
</g>
<g fill="#783E41" fill-opacity="1.00" stroke="None">
<path d="
M 81.00 78.00 
C 78.52 89.77 74.68 100.74 72.67 112.67 C 70.67 124.61 64.24 131.86 51.92 135.92 C 39.60 139.98 36.74 149.78 33.00 161.00
C 37.14 153.16 40.10 143.75 49.00 140.00
C 59.66 135.51 72.65 130.50 74.78 117.78 C 76.91 105.06 79.78 90.61 83.00 78.00
C 85.37 68.72 87.69 59.34 90.00 50.00
C 103.35 49.62 114.42 50.50 128.00 50.00 C 141.58 49.50 129.49 67.68 129.08 75.08 C 128.67 82.48 118.94 102.53 130.00 103.00 C 141.07 103.46 150.55 97.70 161.01 96.01 C 171.47 94.32 181.33 90.60 191.67 88.67 C 202.02 86.74 213.13 84.51 222.00 80.00
C 221.02 80.15 219.98 79.85 219.00 80.00
C 187.75 84.71 157.45 96.68 126.00 101.00
C 126.52 95.14 128.31 89.57 130.00 84.00
C 131.47 72.09 135.51 60.87 137.00 49.00
C 134.33 49.00 131.67 49.00 129.00 49.00
C 115.33 49.00 101.67 49.00 88.00 49.00
C 85.54 51.61 86.01 59.66 84.33 63.33 C 82.65 67.00 81.86 73.94 81.00 78.00 Z"/>
</g>
<g fill="#544648" fill-opacity="1.00" stroke="None">
<path d="
M 83.00 78.00 
C 84.74 76.20 85.24 78.40 85.00 80.00
C 87.01 80.82 86.47 78.18 88.00 78.00
C 89.42 71.80 92.72 68.52 92.78 61.78 C 92.84 55.04 100.59 52.85 107.00 55.00 C 113.41 57.15 122.71 51.49 128.00 55.00
C 130.15 56.43 127.52 60.98 127.00 63.00
C 125.96 73.98 126.35 80.85 123.01 93.01 C 119.67 105.17 134.79 106.68 144.00 102.00
C 143.02 103.11 141.68 103.28 143.00 105.00
C 165.16 99.39 187.82 95.66 210.00 90.00
C 213.01 89.23 218.12 85.93 221.00 88.00
C 216.61 89.25 211.79 90.93 208.00 93.00
C 209.88 93.17 210.66 94.82 212.00 96.00
C 206.78 102.99 193.84 102.59 191.00 109.00
C 193.55 108.07 197.79 104.64 200.00 107.00
C 201.34 108.44 200.83 109.28 200.00 111.00
C 203.11 109.02 208.32 108.95 211.00 108.00
C 215.30 105.65 219.88 102.27 224.23 100.23 C 228.58 98.19 234.25 92.37 238.00 96.00
C 239.92 97.86 238.70 96.99 237.00 100.00
C 238.56 100.41 239.69 99.54 241.00 99.00
C 243.36 94.76 247.24 93.88 249.00 89.00
C 244.68 89.27 241.80 87.28 238.00 85.00
C 240.12 82.39 242.18 79.55 242.00 76.00
C 248.09 77.50 252.39 68.74 246.00 63.00
C 236.62 62.17 227.91 59.27 221.00 61.00
C 220.68 55.99 217.81 60.43 214.00 60.00
C 216.98 63.28 208.39 63.59 211.00 68.00
C 208.53 66.12 203.17 67.76 207.00 64.00
C 202.93 65.24 197.82 73.06 194.00 68.00
C 193.32 73.82 182.48 70.92 181.00 75.00
C 188.94 77.13 192.67 74.05 199.00 74.00 C 205.32 73.95 213.01 71.46 219.25 70.60 C 225.50 69.74 233.35 69.94 238.00 73.00
C 239.33 73.04 240.67 72.97 242.00 73.00
C 242.36 75.07 239.61 75.84 238.00 76.00
C 233.36 77.98 226.98 79.26 222.00 80.00
C 213.13 84.51 202.02 86.74 191.67 88.67 C 181.33 90.60 171.47 94.32 161.01 96.01 C 150.55 97.70 141.07 103.46 130.00 103.00 C 118.94 102.53 128.67 82.48 129.08 75.08 C 129.49 67.68 141.58 49.50 128.00 50.00 C 114.42 50.50 103.35 49.62 90.00 50.00
C 87.69 59.34 85.37 68.72 83.00 78.00 Z"/>
</g>
<g fill="#9B9894" fill-opacity="1.00" stroke="None">
<path d="
M 88.00 78.00 
C 84.95 91.33 82.30 104.69 79.00 118.00
C 81.36 114.45 84.76 105.12 86.00 98.00
C 86.86 100.49 85.66 104.72 87.00 108.00
C 87.78 104.34 91.39 109.00 90.00 110.00
C 92.85 113.23 90.74 105.87 94.00 107.00
C 94.52 108.93 97.97 111.85 95.00 114.00
C 94.50 118.10 89.82 127.82 93.00 131.00
C 91.62 128.53 94.80 123.05 95.00 120.00 C 95.20 116.95 97.78 112.44 98.00 109.00
C 98.41 102.60 99.52 93.58 102.00 87.00
C 100.12 85.63 98.00 83.71 98.00 81.00
C 109.15 85.56 100.58 69.27 99.00 64.00
C 101.86 61.98 112.84 58.28 116.00 65.00
C 118.31 65.45 119.07 62.47 121.00 62.00
C 123.56 59.98 126.91 57.65 128.00 55.00
C 122.71 51.49 113.41 57.15 107.00 55.00 C 100.59 52.85 92.84 55.04 92.78 61.78 C 92.72 68.52 89.42 71.80 88.00 78.00 Z"/>
</g>
<g fill="#736E6A" fill-opacity="1.00" stroke="None">
<path d="
M 121.00 62.00 
C 117.35 65.65 114.66 70.34 111.00 74.00
C 114.80 74.30 112.93 82.62 117.00 78.00
C 116.98 81.40 121.09 88.53 115.00 89.00
C 122.57 96.15 110.52 105.02 114.00 113.00
C 114.98 112.37 115.55 112.12 116.00 111.00
C 121.86 96.36 123.07 78.38 127.00 63.00
C 127.52 60.98 130.15 56.43 128.00 55.00
C 126.91 57.65 123.56 59.98 121.00 62.00 Z"/>
</g>
<g fill="#C0BEBC" fill-opacity="1.00" stroke="None">
<path d="
M 98.00 109.00 
C 101.85 96.70 101.60 83.40 111.00 74.00
C 114.66 70.34 117.35 65.65 121.00 62.00
C 119.07 62.47 118.31 65.45 116.00 65.00
C 112.84 58.28 101.86 61.98 99.00 64.00
C 100.58 69.27 109.15 85.56 98.00 81.00
C 98.00 83.71 100.12 85.63 102.00 87.00
C 99.52 93.58 98.41 102.60 98.00 109.00 Z"/>
</g>
<g fill="#9B3235" fill-opacity="1.00" stroke="None">
<path d="
M 29.00 162.00 
C 34.42 142.28 47.63 131.70 67.00 124.00
C 69.65 110.57 73.38 96.81 77.00 84.00
C 78.81 76.70 80.38 69.29 82.00 62.00
C 76.80 74.05 73.06 87.89 70.31 101.31 C 67.55 114.72 63.09 126.33 49.08 131.08 C 35.07 135.83 30.20 148.76 29.00 162.00 Z"/>
</g>
<g fill="#3B3436" fill-opacity="1.00" stroke="None">
<path d="
M 116.00 111.00 
C 119.25 109.21 125.27 109.16 129.07 108.07 C 132.88 106.99 139.03 105.06 143.00 105.00
C 141.68 103.28 143.02 103.11 144.00 102.00
C 134.79 106.68 119.67 105.17 123.01 93.01 C 126.35 80.85 125.96 73.98 127.00 63.00
C 123.07 78.38 121.86 96.36 116.00 111.00 Z"/>
</g>
<g fill="#8E6964" fill-opacity="1.00" stroke="None">
<path d="
M 234.00 74.00 
C 234.23 74.10 238.95 76.15 238.00 76.00
C 239.61 75.84 242.36 75.07 242.00 73.00
C 240.67 72.97 239.33 73.04 238.00 73.00
C 237.18 72.98 235.78 72.77 235.00 73.00
C 234.65 73.11 234.26 73.90 234.00 74.00 Z"/>
</g>
<g fill="#615C5E" fill-opacity="1.00" stroke="None">
<path d="
M 98.00 109.00 
C 99.37 107.10 102.20 107.48 104.00 108.00
C 104.26 113.26 111.85 116.75 105.00 121.00
C 110.15 121.01 114.59 118.11 120.00 119.00
C 115.32 125.91 100.09 127.95 93.00 131.00
C 89.82 127.82 94.50 118.10 95.00 114.00
C 93.37 118.52 88.30 119.42 89.00 125.00
C 84.65 123.63 81.26 126.92 80.00 123.00
C 80.19 126.55 77.39 129.30 78.00 133.00
C 73.89 133.24 70.90 136.76 67.00 138.00
C 68.27 141.02 71.88 136.54 73.00 139.00
C 65.40 141.06 57.33 141.56 51.00 147.00
C 74.20 140.56 97.61 132.96 120.00 125.00
C 129.02 118.75 140.48 115.40 151.00 111.00
C 150.92 109.74 148.94 110.44 149.00 109.00
C 148.56 109.16 148.00 109.00 148.00 109.00
C 144.70 110.80 140.79 110.96 137.00 112.00
C 128.32 116.34 118.60 116.72 110.00 117.00
C 110.67 115.80 111.64 114.42 113.00 114.00
C 113.27 113.83 113.69 113.20 114.00 113.00
C 110.52 105.02 122.57 96.15 115.00 89.00
C 121.09 88.53 116.98 81.40 117.00 78.00
C 112.93 82.62 114.80 74.30 111.00 74.00
C 101.60 83.40 101.85 96.70 98.00 109.00 Z"/>
</g>
<g fill="#C89A8F" fill-opacity="1.00" stroke="None">
<path d="
M 221.00 77.00 
C 220.45 77.46 219.98 79.32 219.00 80.00
C 219.98 79.85 221.02 80.15 222.00 80.00
C 226.98 79.26 233.36 77.98 238.00 76.00
C 238.95 76.15 234.23 74.10 234.00 74.00
C 230.23 75.52 224.97 76.03 221.00 77.00 Z"/>
</g>
<g fill="#3E3035" fill-opacity="1.00" stroke="None">
<path d="
M 83.00 78.00 
C 79.78 90.61 76.91 105.06 74.78 117.78 C 72.65 130.50 59.66 135.51 49.00 140.00
C 40.53 145.69 37.06 155.33 36.00 165.00
C 39.26 165.60 41.91 164.17 45.00 164.00
C 45.14 164.18 44.02 159.91 44.00 160.00
C 44.23 159.11 46.17 158.34 47.00 158.00
C 48.81 157.25 51.08 156.58 53.00 156.00
C 51.86 156.06 48.57 153.67 47.00 156.00
C 45.28 153.73 46.27 150.66 46.00 148.00
C 47.51 143.91 55.19 142.71 58.75 139.75 C 62.30 136.79 67.69 134.79 72.08 132.08 C 76.48 129.37 77.81 122.80 79.00 118.00
C 82.30 104.69 84.95 91.33 88.00 78.00
C 86.47 78.18 87.01 80.82 85.00 80.00
C 85.24 78.40 84.74 76.20 83.00 78.00 Z"/>
</g>
<g fill="#D77C7C" fill-opacity="1.00" stroke="None">
<path d="
M 144.00 94.00 
C 139.76 94.99 134.87 97.03 130.00 97.00
C 130.08 93.19 131.26 89.67 132.00 86.00
C 132.36 84.60 132.68 83.37 133.00 82.00
C 132.54 82.71 130.58 83.25 130.00 84.00
C 128.31 89.57 126.52 95.14 126.00 101.00
C 157.45 96.68 187.75 84.71 219.00 80.00
C 219.98 79.32 220.45 77.46 221.00 77.00
C 195.44 83.23 169.60 88.04 144.00 94.00 Z"/>
</g>
<g fill="#D35054" fill-opacity="1.00" stroke="None">
<path d="
M 77.00 84.00 
C 73.38 96.81 69.65 110.57 67.00 124.00
C 47.63 131.70 34.42 142.28 29.00 162.00
C 28.83 163.85 26.91 167.94 27.00 169.00
C 27.38 171.20 27.39 170.04 29.00 171.00
C 37.08 173.17 46.77 169.37 55.00 171.00
C 51.77 182.18 50.11 194.44 46.00 205.00
C 46.41 207.83 46.08 206.61 48.00 208.00
C 56.85 211.34 68.38 206.60 78.00 208.00 C 87.62 209.40 99.04 207.48 109.00 208.00 C 118.96 208.52 129.95 208.00 140.00 208.00
C 140.84 207.43 140.84 205.57 140.00 205.00
C 134.33 205.00 128.67 205.00 123.00 205.00
C 98.67 205.00 74.33 205.00 50.00 205.00
C 52.51 192.96 55.26 180.35 59.00 169.00
C 56.94 165.90 49.81 168.81 46.00 168.00 C 42.19 167.19 35.11 168.60 31.00 168.00
C 30.37 165.28 33.07 163.59 33.00 161.00
C 36.74 149.78 39.60 139.98 51.92 135.92 C 64.24 131.86 70.67 124.61 72.67 112.67 C 74.68 100.74 78.52 89.77 81.00 78.00
C 80.67 78.72 76.84 84.35 77.00 84.00 Z"/>
</g>
<g fill="#B23D3D" fill-opacity="1.00" stroke="None">
<path d="
M 144.00 94.00 
C 140.77 92.87 137.20 93.14 134.00 92.00
C 137.21 89.93 132.05 86.31 132.00 86.00
C 131.26 89.67 130.08 93.19 130.00 97.00
C 134.87 97.03 139.76 94.99 144.00 94.00 Z"/>
</g>
<g fill="#8E8781" fill-opacity="1.00" stroke="None">
<path d="
M 210.00 90.00 
C 203.26 93.42 189.24 98.46 180.00 101.00
C 182.55 100.76 185.90 100.65 189.00 100.00
C 195.52 98.63 201.79 95.47 208.00 93.00
C 211.79 90.93 216.61 89.25 221.00 88.00
C 218.12 85.93 213.01 89.23 210.00 90.00 Z"/>
</g>
<g fill="#CAC8C3" fill-opacity="1.00" stroke="None">
<path d="
M 143.00 105.00 
C 145.71 104.96 151.60 106.36 154.00 106.00
C 152.65 107.26 143.74 107.80 148.00 109.00
C 148.00 109.00 148.56 109.16 149.00 109.00
C 158.09 105.77 170.36 101.90 180.00 101.00
C 189.24 98.46 203.26 93.42 210.00 90.00
C 187.82 95.66 165.16 99.39 143.00 105.00 Z"/>
</g>
<g fill="#282227" fill-opacity="1.00" stroke="None">
<path d="
M 189.00 100.00 
C 166.44 108.85 143.00 116.82 120.00 125.00
C 97.61 132.96 74.20 140.56 51.00 147.00
C 50.06 147.26 46.64 147.17 46.00 148.00
C 46.27 150.66 45.28 153.73 47.00 156.00
C 48.57 153.67 51.86 156.06 53.00 156.00
C 57.32 154.71 62.82 153.30 67.07 152.07 C 71.33 150.85 76.62 148.37 80.68 147.68 C 84.74 146.98 90.91 143.61 94.22 143.22 C 97.53 142.84 106.74 137.71 108.00 140.00
C 109.45 142.62 104.98 147.03 105.22 150.22 C 105.46 153.42 102.44 158.50 103.00 162.00
C 111.67 162.00 120.33 162.00 129.00 162.00
C 127.53 160.99 126.43 158.52 124.00 159.00
C 129.02 144.53 147.83 140.63 159.70 131.70 C 171.56 122.76 188.51 120.95 200.00 111.00
C 200.83 109.28 201.34 108.44 200.00 107.00
C 197.46 105.45 189.75 112.27 186.77 113.77 C 183.79 115.27 176.18 119.17 173.00 121.00
C 154.66 131.55 136.26 142.09 117.00 151.00
C 115.21 151.83 113.45 154.23 111.00 154.00
C 110.87 151.21 111.12 147.88 113.00 146.00
C 114.25 141.45 113.38 135.23 119.22 134.22 C 125.07 133.22 127.69 131.82 133.00 130.00
C 152.46 123.34 171.70 116.04 191.00 109.00
C 193.84 102.59 206.78 102.99 212.00 96.00
C 210.66 94.82 209.88 93.17 208.00 93.00
C 201.79 95.47 195.52 98.63 189.00 100.00 Z"/>
</g>
<g fill="#B88B86" fill-opacity="1.00" stroke="None">
<path d="
M 211.00 108.00 
C 209.67 108.73 208.31 109.25 207.00 110.00
C 207.30 109.67 206.58 113.53 207.00 113.00
C 214.77 108.58 223.12 104.53 231.00 100.00
C 232.80 98.96 235.86 95.93 238.00 96.00
C 234.25 92.37 228.58 98.19 224.23 100.23 C 219.88 102.27 215.30 105.65 211.00 108.00 Z"/>
</g>
<g fill="#4A2F31" fill-opacity="1.00" stroke="None">
<path d="
M 231.00 100.00 
C 230.19 100.88 229.02 102.91 228.00 104.00
C 221.32 111.16 213.72 116.72 204.77 119.77 C 195.83 122.83 188.32 132.54 181.00 134.00
C 179.82 136.59 181.47 139.00 181.00 142.00
C 186.35 140.13 186.43 145.99 191.30 150.70 C 196.18 155.40 189.34 167.21 195.00 170.00
C 191.58 178.78 187.59 188.76 187.00 197.00
C 189.15 194.25 188.46 190.85 190.31 188.30 C 192.15 185.75 195.15 184.74 196.00 182.00
C 195.91 178.53 196.71 172.95 201.00 171.00
C 199.47 166.85 195.99 160.48 200.00 158.00
C 199.34 156.07 196.61 155.33 197.00 153.00
C 195.86 151.11 195.33 143.37 191.00 144.00
C 191.22 135.75 197.48 131.39 204.67 128.67 C 211.86 125.95 215.67 117.54 223.00 117.00
C 222.31 118.28 219.89 120.22 223.00 120.00
C 227.38 119.22 227.39 110.00 232.00 115.00
C 227.62 109.19 238.77 107.14 241.00 102.00
C 241.08 101.69 240.44 100.34 241.00 99.00
C 239.69 99.54 238.56 100.41 237.00 100.00
C 238.70 96.99 239.92 97.86 238.00 96.00
C 235.86 95.93 232.80 98.96 231.00 100.00 Z"/>
</g>
<g fill="#857E7E" fill-opacity="1.00" stroke="None">
<path d="
M 79.00 118.00 
C 77.81 122.80 76.48 129.37 72.08 132.08 C 67.69 134.79 62.30 136.79 58.75 139.75 C 55.19 142.71 47.51 143.91 46.00 148.00
C 46.64 147.17 50.06 147.26 51.00 147.00
C 57.33 141.56 65.40 141.06 73.00 139.00
C 71.88 136.54 68.27 141.02 67.00 138.00
C 70.90 136.76 73.89 133.24 78.00 133.00
C 77.39 129.30 80.19 126.55 80.00 123.00
C 81.26 126.92 84.65 123.63 89.00 125.00
C 88.30 119.42 93.37 118.52 95.00 114.00
C 97.97 111.85 94.52 108.93 94.00 107.00
C 90.74 105.87 92.85 113.23 90.00 110.00
C 91.39 109.00 87.78 104.34 87.00 108.00
C 85.66 104.72 86.86 100.49 86.00 98.00
C 84.76 105.12 81.36 114.45 79.00 118.00 Z"/>
</g>
<g fill="#766B6A" fill-opacity="1.00" stroke="None">
<path d="
M 180.00 101.00 
C 170.36 101.90 158.09 105.77 149.00 109.00
C 148.94 110.44 150.92 109.74 151.00 111.00
C 140.48 115.40 129.02 118.75 120.00 125.00
C 143.00 116.82 166.44 108.85 189.00 100.00
C 185.90 100.65 182.55 100.76 180.00 101.00 Z"/>
</g>
<g fill="#7B3030" fill-opacity="1.00" stroke="None">
<path d="
M 207.00 113.00 
C 196.15 119.17 184.88 125.54 174.00 132.00
C 170.41 135.32 162.21 141.70 159.70 145.70 C 157.19 149.71 177.25 152.73 180.00 153.00
C 182.67 153.00 185.33 153.00 188.00 153.00
C 185.58 169.65 180.63 185.64 177.00 202.00
C 176.79 202.85 176.45 206.47 176.00 207.00
C 188.26 200.27 182.84 182.61 188.20 171.75 C 193.55 160.90 187.95 144.37 174.00 142.00
C 178.42 131.44 189.72 127.22 198.70 120.70 C 207.68 114.17 218.24 109.03 228.00 104.00
C 229.02 102.91 230.19 100.88 231.00 100.00
C 223.12 104.53 214.77 108.58 207.00 113.00 Z"/>
</g>
<g fill="#2D2D32" fill-opacity="1.00" stroke="None">
<path d="
M 241.00 102.00 
C 238.77 107.14 227.62 109.19 232.00 115.00
C 227.39 110.00 227.38 119.22 223.00 120.00
C 224.35 120.87 224.32 119.62 226.00 119.00
C 218.56 128.52 207.50 134.26 197.00 141.00
C 198.07 146.18 197.46 151.16 201.00 155.00
C 199.18 155.55 198.53 153.25 197.00 153.00
C 196.61 155.33 199.34 156.07 200.00 158.00
C 195.99 160.48 199.47 166.85 201.00 171.00
C 196.71 172.95 195.91 178.53 196.00 182.00
C 196.12 186.54 195.68 189.86 196.00 194.00
C 190.07 196.23 193.23 202.74 189.60 206.75 C 185.97 210.75 180.30 214.94 177.00 219.00
C 175.68 221.46 178.00 220.34 178.00 223.00
C 173.04 224.32 169.86 231.55 164.00 231.00
C 165.92 233.45 165.89 235.60 165.00 239.00
C 159.48 239.08 162.97 239.09 164.00 242.00
C 160.80 242.97 157.47 239.14 156.00 245.00
C 162.88 241.60 166.70 249.05 164.00 255.00
C 160.34 254.38 164.21 251.06 162.00 250.00
C 161.49 252.99 158.04 253.28 157.00 256.00
L 256.00 256.00
L 256.00 107.00
C 252.95 107.10 251.24 103.82 254.00 102.00
C 251.31 102.66 249.44 102.22 247.00 104.00
C 247.33 100.27 243.04 100.96 241.00 102.00 Z"/>
</g>
<g fill="#602627" fill-opacity="1.00" stroke="None">
<path d="
M 176.00 207.00 
C 174.13 208.03 172.43 207.93 170.00 208.00
C 157.93 210.54 143.00 209.88 130.00 210.00 C 117.00 210.12 100.94 212.73 88.00 211.00 C 75.06 209.27 58.44 215.53 48.00 208.00
C 46.08 206.61 46.41 207.83 46.00 205.00
C 44.64 195.54 50.78 185.78 49.00 176.00
C 42.86 172.70 34.72 174.36 29.00 171.00
C 27.39 170.04 27.38 171.20 27.00 169.00
C 26.84 168.08 27.00 166.94 27.00 166.00
C 26.75 167.99 25.31 169.46 27.00 172.00
C 33.30 177.28 48.32 178.33 44.78 190.22 C 41.24 202.12 44.87 211.83 57.07 212.93 C 69.28 214.02 81.27 212.04 93.00 213.00 C 104.73 213.96 111.77 212.16 124.00 213.00 C 136.23 213.84 148.69 210.62 161.00 212.00 C 173.31 213.38 178.63 205.71 186.00 198.00
C 186.25 197.74 186.79 197.26 187.00 197.00
C 187.59 188.76 191.58 178.78 195.00 170.00
C 189.34 167.21 196.18 155.40 191.30 150.70 C 186.43 145.99 186.35 140.13 181.00 142.00
C 181.47 139.00 179.82 136.59 181.00 134.00
C 188.32 132.54 195.83 122.83 204.77 119.77 C 213.72 116.72 221.32 111.16 228.00 104.00
C 218.24 109.03 207.68 114.17 198.70 120.70 C 189.72 127.22 178.42 131.44 174.00 142.00
C 187.95 144.37 193.55 160.90 188.20 171.75 C 182.84 182.61 188.26 200.27 176.00 207.00 Z"/>
</g>
<g fill="#ACA5A3" fill-opacity="1.00" stroke="None">
<path d="
M 116.00 111.00 
C 115.55 112.12 114.98 112.37 114.00 113.00
C 113.69 113.20 113.27 113.83 113.00 114.00
C 113.78 115.85 124.73 110.91 128.01 111.01 C 131.29 111.11 140.73 106.26 144.00 109.00
C 141.68 109.74 138.52 109.94 137.00 112.00
C 140.79 110.96 144.70 110.80 148.00 109.00
C 143.74 107.80 152.65 107.26 154.00 106.00
C 151.60 106.36 145.71 104.96 143.00 105.00
C 139.03 105.06 132.88 106.99 129.07 108.07 C 125.27 109.16 119.25 109.21 116.00 111.00 Z"/>
</g>
<g fill="#A09997" fill-opacity="1.00" stroke="None">
<path d="
M 191.00 109.00 
C 171.70 116.04 152.46 123.34 133.00 130.00
C 133.39 130.14 133.77 131.91 134.00 132.00
C 134.45 131.84 135.55 131.85 136.00 132.00
C 147.42 126.53 160.92 122.47 173.00 121.00
C 176.18 119.17 183.79 115.27 186.77 113.77 C 189.75 112.27 197.46 105.45 200.00 107.00
C 197.79 104.64 193.55 108.07 191.00 109.00 Z"/>
</g>
<g fill="#4A474A" fill-opacity="1.00" stroke="None">
<path d="
M 98.00 109.00 
C 97.78 112.44 95.20 116.95 95.00 120.00 C 94.80 123.05 91.62 128.53 93.00 131.00
C 100.09 127.95 115.32 125.91 120.00 119.00
C 114.59 118.11 110.15 121.01 105.00 121.00
C 111.85 116.75 104.26 113.26 104.00 108.00
C 102.20 107.48 99.37 107.10 98.00 109.00 Z"/>
</g>
<g fill="#51272B" fill-opacity="1.00" stroke="None">
<path d="
M 200.00 111.00 
C 188.51 120.95 171.56 122.76 159.70 131.70 C 147.83 140.63 129.02 144.53 124.00 159.00
C 126.43 158.52 127.53 160.99 129.00 162.00
C 130.13 162.14 130.36 162.83 131.00 163.00
C 135.50 163.00 141.67 162.69 146.00 163.00 C 150.33 163.31 157.29 162.18 161.00 163.00 C 164.71 163.82 174.38 160.78 176.00 164.00
C 176.58 165.15 175.33 167.88 175.00 169.00
C 174.59 170.39 174.33 171.53 174.00 173.00
C 174.01 180.54 174.93 190.07 172.00 198.00 C 169.07 205.93 154.15 200.99 146.00 202.00 C 137.85 203.01 126.12 201.55 117.00 202.00 C 107.88 202.45 96.54 201.76 87.00 202.00 C 77.46 202.24 66.66 201.82 57.00 202.00
C 58.38 191.89 56.41 187.63 59.99 176.99 C 63.57 166.36 56.44 163.11 45.00 164.00
C 41.91 164.17 39.26 165.60 36.00 165.00
C 37.06 155.33 40.53 145.69 49.00 140.00
C 40.10 143.75 37.14 153.16 33.00 161.00
C 33.07 163.59 30.37 165.28 31.00 168.00
C 35.11 168.60 42.19 167.19 46.00 168.00 C 49.81 168.81 56.94 165.90 59.00 169.00
C 61.44 172.67 55.46 182.44 56.07 187.07 C 56.68 191.70 50.85 198.83 52.00 204.00
C 75.50 204.67 100.32 202.67 123.00 205.00
C 128.67 205.00 134.33 205.00 140.00 205.00
C 151.33 205.00 162.67 205.00 174.00 205.00
C 174.00 203.33 174.00 201.67 174.00 200.00
C 172.72 185.77 182.86 173.46 181.00 159.00
C 163.71 157.18 143.27 162.75 128.00 156.00
C 127.05 153.72 137.86 148.83 141.70 146.70 C 145.53 144.56 152.80 140.07 157.69 137.69 C 162.59 135.32 169.00 130.89 174.23 128.23 C 179.46 125.57 184.80 121.99 190.23 119.23 C 195.66 116.47 201.63 113.08 207.00 110.00
C 208.31 109.25 209.67 108.73 211.00 108.00
C 208.32 108.95 203.11 109.02 200.00 111.00 Z"/>
</g>
<g fill="#362023" fill-opacity="1.00" stroke="None">
<path d="
M 18.00 169.00 
C 18.52 172.83 21.61 173.83 20.00 179.00
C 24.88 176.93 27.84 184.05 33.00 185.00
C 33.74 195.47 39.06 203.52 42.00 214.00
C 48.81 215.34 55.12 223.20 61.70 222.64 C 68.28 222.07 74.94 222.36 80.70 222.65 C 86.45 222.94 96.81 221.40 102.00 226.00
C 112.64 218.98 126.15 227.83 137.00 222.00
C 149.34 228.77 163.38 220.59 177.00 219.00
C 180.30 214.94 185.97 210.75 189.60 206.75 C 193.23 202.74 190.07 196.23 196.00 194.00
C 195.68 189.86 196.12 186.54 196.00 182.00
C 195.15 184.74 192.15 185.75 190.31 188.30 C 188.46 190.85 189.15 194.25 187.00 197.00
C 186.79 197.26 186.25 197.74 186.00 198.00
C 190.19 200.92 181.54 202.51 180.25 207.25 C 178.95 211.98 173.44 215.60 170.00 219.00
C 162.81 215.92 155.96 221.95 147.00 220.00 C 138.04 218.05 131.61 218.05 123.77 218.21 C 115.93 218.37 107.28 222.34 101.00 218.00
C 94.04 223.23 84.48 216.81 73.99 218.01 C 63.50 219.21 51.76 215.09 43.00 210.00
C 42.76 201.49 38.78 192.81 41.00 185.00
C 33.52 181.49 25.87 175.96 21.00 169.00
C 21.38 166.89 24.38 163.97 20.00 164.00
C 20.38 150.07 24.00 138.45 38.00 130.00
C 43.62 123.76 52.42 119.09 58.00 113.00
C 57.73 111.14 57.01 109.94 57.00 108.00
C 54.94 108.72 51.57 110.54 54.00 113.00
C 51.55 111.22 46.68 115.79 50.00 117.00
C 43.44 116.30 38.95 122.36 33.25 126.25 C 27.54 130.13 24.36 135.84 21.31 141.31 C 18.25 146.77 19.14 156.93 16.00 159.00
C 18.40 161.38 17.45 164.97 18.00 169.00 Z"/>
</g>
<g fill="#89807F" fill-opacity="1.00" stroke="None">
<path d="
M 113.00 114.00 
C 111.64 114.42 110.67 115.80 110.00 117.00
C 118.60 116.72 128.32 116.34 137.00 112.00
C 138.52 109.94 141.68 109.74 144.00 109.00
C 140.73 106.26 131.29 111.11 128.01 111.01 C 124.73 110.91 113.78 115.85 113.00 114.00 Z"/>
</g>
<g fill="#D06464" fill-opacity="1.00" stroke="None">
<path d="
M 128.00 156.00 
C 132.96 158.61 141.31 154.78 147.00 156.00 C 152.69 157.22 160.00 155.36 166.00 156.00 C 172.00 156.64 178.92 155.52 185.00 156.00
C 182.10 170.77 177.50 185.09 175.00 200.00
C 175.51 201.53 176.67 201.29 177.00 202.00
C 180.63 185.64 185.58 169.65 188.00 153.00
C 185.33 153.00 182.67 153.00 180.00 153.00
C 169.33 153.00 158.67 153.00 148.00 153.00
C 144.33 153.00 140.67 153.00 137.00 153.00
C 141.98 148.84 148.62 146.81 154.00 143.00
C 160.50 139.34 167.45 135.89 174.00 132.00
C 184.88 125.54 196.15 119.17 207.00 113.00
C 206.58 113.53 207.30 109.67 207.00 110.00
C 201.63 113.08 195.66 116.47 190.23 119.23 C 184.80 121.99 179.46 125.57 174.23 128.23 C 169.00 130.89 162.59 135.32 157.69 137.69 C 152.80 140.07 145.53 144.56 141.70 146.70 C 137.86 148.83 127.05 153.72 128.00 156.00 Z"/>
</g>
<g fill="#3A2D2F" fill-opacity="1.00" stroke="None">
<path d="
M 197.00 153.00 
C 198.53 153.25 199.18 155.55 201.00 155.00
C 197.46 151.16 198.07 146.18 197.00 141.00
C 207.50 134.26 218.56 128.52 226.00 119.00
C 224.32 119.62 224.35 120.87 223.00 120.00
C 219.89 120.22 222.31 118.28 223.00 117.00
C 215.67 117.54 211.86 125.95 204.67 128.67 C 197.48 131.39 191.22 135.75 191.00 144.00
C 195.33 143.37 195.86 151.11 197.00 153.00 Z"/>
</g>
<g fill="#706163" fill-opacity="1.00" stroke="None">
<path d="
M 136.00 132.00 
C 139.25 133.05 141.47 131.29 145.00 131.00
C 139.35 141.17 121.77 142.36 117.00 151.00
C 136.26 142.09 154.66 131.55 173.00 121.00
C 160.92 122.47 147.42 126.53 136.00 132.00 Z"/>
</g>
<g fill="#451E20" fill-opacity="1.00" stroke="None">
<path d="
M 186.00 198.00 
C 178.63 205.71 173.31 213.38 161.00 212.00 C 148.69 210.62 136.23 213.84 124.00 213.00 C 111.77 212.16 104.73 213.96 93.00 213.00 C 81.27 212.04 69.28 214.02 57.07 212.93 C 44.87 211.83 41.24 202.12 44.78 190.22 C 48.32 178.33 33.30 177.28 27.00 172.00
C 20.61 166.65 26.22 158.18 25.93 151.08 C 25.64 143.97 30.83 138.63 36.00 133.00
C 36.71 132.22 37.31 130.89 38.00 130.00
C 24.00 138.45 20.38 150.07 20.00 164.00
C 24.38 163.97 21.38 166.89 21.00 169.00
C 25.87 175.96 33.52 181.49 41.00 185.00
C 38.78 192.81 42.76 201.49 43.00 210.00
C 51.76 215.09 63.50 219.21 73.99 218.01 C 84.48 216.81 94.04 223.23 101.00 218.00
C 107.28 222.34 115.93 218.37 123.77 218.21 C 131.61 218.05 138.04 218.05 147.00 220.00 C 155.96 221.95 162.81 215.92 170.00 219.00
C 173.44 215.60 178.95 211.98 180.25 207.25 C 181.54 202.51 190.19 200.92 186.00 198.00 Z"/>
</g>
<g fill="#807979" fill-opacity="1.00" stroke="None">
<path d="
M 113.00 146.00 
C 113.08 147.00 112.55 148.73 114.00 149.00
C 113.54 136.73 125.44 135.42 134.00 132.00
C 133.77 131.91 133.39 130.14 133.00 130.00
C 127.69 131.82 125.07 133.22 119.22 134.22 C 113.38 135.23 114.25 141.45 113.00 146.00 Z"/>
</g>
<g fill="#595052" fill-opacity="1.00" stroke="None">
<path d="
M 136.00 132.00 
C 135.55 131.85 134.45 131.84 134.00 132.00
C 125.44 135.42 113.54 136.73 114.00 149.00
C 112.55 148.73 113.08 147.00 113.00 146.00
C 111.12 147.88 110.87 151.21 111.00 154.00
C 113.45 154.23 115.21 151.83 117.00 151.00
C 121.77 142.36 139.35 141.17 145.00 131.00
C 141.47 131.29 139.25 133.05 136.00 132.00 Z"/>
</g>
<g fill="#9E2B2C" fill-opacity="1.00" stroke="None">
<path d="
M 154.00 143.00 
C 151.38 145.09 148.17 149.33 148.00 153.00
C 158.67 153.00 169.33 153.00 180.00 153.00
C 177.25 152.73 157.19 149.71 159.70 145.70 C 162.21 141.70 170.41 135.32 174.00 132.00
C 167.45 135.89 160.50 139.34 154.00 143.00 Z"/>
</g>
<g fill="#827E7F" fill-opacity="1.00" stroke="None">
<path d="
M 53.00 156.00 
C 51.08 156.58 48.81 157.25 47.00 158.00
C 59.19 156.15 73.43 153.75 86.00 149.00
C 85.60 159.40 81.06 168.72 80.00 179.00
C 83.64 170.87 85.10 162.41 87.32 153.32 C 89.55 144.24 101.58 145.84 108.00 140.00
C 106.74 137.71 97.53 142.84 94.22 143.22 C 90.91 143.61 84.74 146.98 80.68 147.68 C 76.62 148.37 71.33 150.85 67.07 152.07 C 62.82 153.30 57.32 154.71 53.00 156.00 Z"/>
</g>
<g fill="#504B4F" fill-opacity="1.00" stroke="None">
<path d="
M 47.00 158.00 
C 46.17 158.34 44.23 159.11 44.00 160.00
C 51.69 158.67 60.41 161.77 68.00 160.00
C 68.48 158.91 67.25 156.94 71.00 158.00
C 67.33 171.29 65.32 185.37 60.00 198.00
C 62.16 199.43 70.30 198.00 73.00 198.00
C 83.63 196.97 96.03 197.32 106.89 195.89 C 117.75 194.46 124.10 192.88 133.00 195.00
C 134.82 188.98 141.88 196.62 145.00 191.00
C 146.10 197.68 155.30 190.80 159.00 197.00
C 160.71 195.81 163.12 194.35 163.00 192.00
C 159.21 189.14 155.84 185.12 154.00 181.00
C 153.76 181.25 153.00 181.00 153.00 181.00
C 147.88 184.79 138.46 180.61 132.00 182.00 C 125.54 183.39 115.82 180.13 110.00 183.00
C 113.00 182.50 115.55 183.57 118.00 185.00
C 108.56 187.55 109.21 191.64 100.25 194.59 C 91.28 197.53 73.20 193.82 64.00 194.00
C 70.05 190.71 73.86 184.01 80.00 181.00
C 88.77 176.52 101.24 180.75 108.00 173.00
C 106.60 171.03 108.78 168.50 108.00 166.00
C 105.17 167.15 102.29 165.45 99.00 166.00
C 99.67 164.80 100.64 163.42 102.00 163.00
C 109.91 160.54 122.65 163.00 131.00 163.00
C 130.36 162.83 130.13 162.14 129.00 162.00
C 120.33 162.00 111.67 162.00 103.00 162.00
C 102.44 158.50 105.46 153.42 105.22 150.22 C 104.98 147.03 109.45 142.62 108.00 140.00
C 101.58 145.84 89.55 144.24 87.32 153.32 C 85.10 162.41 83.64 170.87 80.00 179.00
C 81.06 168.72 85.60 159.40 86.00 149.00
C 73.43 153.75 59.19 156.15 47.00 158.00 Z"/>
</g>
<g fill="#1F1D22" fill-opacity="1.00" stroke="None">
<path d="
M 0.00 146.00 
L 0.00 256.00
L 157.00 256.00
C 158.04 253.28 161.49 252.99 162.00 250.00
C 164.21 251.06 160.34 254.38 164.00 255.00
C 166.70 249.05 162.88 241.60 156.00 245.00
C 157.47 239.14 160.80 242.97 164.00 242.00
C 162.97 239.09 159.48 239.08 165.00 239.00
C 165.89 235.60 165.92 233.45 164.00 231.00
C 169.86 231.55 173.04 224.32 178.00 223.00
C 178.00 220.34 175.68 221.46 177.00 219.00
C 163.38 220.59 149.34 228.77 137.00 222.00
C 126.15 227.83 112.64 218.98 102.00 226.00
C 96.81 221.40 86.45 222.94 80.70 222.65 C 74.94 222.36 68.28 222.07 61.70 222.64 C 55.12 223.20 48.81 215.34 42.00 214.00
C 39.06 203.52 33.74 195.47 33.00 185.00
C 27.84 184.05 24.88 176.93 20.00 179.00
C 21.61 173.83 18.52 172.83 18.00 169.00
C 16.07 168.47 14.76 170.05 13.00 170.00
C 13.56 166.41 12.97 162.01 11.00 159.00
C 11.73 156.97 14.19 156.04 15.00 154.00
C 7.56 155.78 16.00 149.62 13.00 146.00
C 9.56 146.02 9.60 150.73 6.00 151.00
C 4.38 147.89 9.07 144.78 4.00 143.00
C 2.67 144.15 1.94 145.45 0.00 146.00 Z"/>
</g>
<g fill="#C72127" fill-opacity="1.00" stroke="None">
<path d="
M 148.00 153.00 
C 148.17 149.33 151.38 145.09 154.00 143.00
C 148.62 146.81 141.98 148.84 137.00 153.00
C 140.67 153.00 144.33 153.00 148.00 153.00 Z"/>
</g>
<g fill="#802D32" fill-opacity="1.00" stroke="None">
<path d="
M 174.00 200.00 
C 174.02 200.09 175.00 200.00 175.00 200.00
C 177.50 185.09 182.10 170.77 185.00 156.00
C 178.92 155.52 172.00 156.64 166.00 156.00 C 160.00 155.36 152.69 157.22 147.00 156.00 C 141.31 154.78 132.96 158.61 128.00 156.00
C 143.27 162.75 163.71 157.18 181.00 159.00
C 182.86 173.46 172.72 185.77 174.00 200.00 Z"/>
</g>
<g fill="#70676A" fill-opacity="1.00" stroke="None">
<path d="
M 68.00 160.00 
C 66.13 164.28 64.10 175.04 63.07 179.07 C 62.05 183.11 57.27 196.19 60.00 198.00
C 65.32 185.37 67.33 171.29 71.00 158.00
C 67.25 156.94 68.48 158.91 68.00 160.00 Z"/>
</g>
<g fill="#2A1A1F" fill-opacity="1.00" stroke="None">
<path d="
M 45.00 164.00 
C 56.44 163.11 63.57 166.36 59.99 176.99 C 56.41 187.63 58.38 191.89 57.00 202.00
C 66.66 201.82 77.46 202.24 87.00 202.00 C 96.54 201.76 107.88 202.45 117.00 202.00 C 126.12 201.55 137.85 203.01 146.00 202.00 C 154.15 200.99 169.07 205.93 172.00 198.00 C 174.93 190.07 174.01 180.54 174.00 173.00
C 172.15 181.35 170.14 189.70 168.00 198.00
C 136.33 198.00 104.67 198.00 73.00 198.00
C 70.30 198.00 62.16 199.43 60.00 198.00
C 57.27 196.19 62.05 183.11 63.07 179.07 C 64.10 175.04 66.13 164.28 68.00 160.00
C 60.41 161.77 51.69 158.67 44.00 160.00
C 44.02 159.91 45.14 164.18 45.00 164.00 Z"/>
</g>
<g fill="#6D686A" fill-opacity="1.00" stroke="None">
<path d="
M 80.00 181.00 
C 82.98 180.32 86.93 181.00 90.00 181.00
C 98.18 180.21 107.15 179.00 116.00 179.00
C 116.66 177.02 118.69 172.38 121.00 174.00
C 119.20 170.85 120.31 168.16 119.00 165.00
C 116.70 165.00 110.96 164.40 109.00 165.00 C 107.04 165.60 99.18 164.40 102.00 163.00
C 100.64 163.42 99.67 164.80 99.00 166.00
C 102.29 165.45 105.17 167.15 108.00 166.00
C 108.78 168.50 106.60 171.03 108.00 173.00
C 101.24 180.75 88.77 176.52 80.00 181.00 Z"/>
</g>
<g fill="#ACA6A2" fill-opacity="1.00" stroke="None">
<path d="
M 119.00 165.00 
C 129.17 165.00 140.66 164.17 150.00 166.00
C 144.67 165.77 143.26 168.19 138.00 168.00
C 137.89 171.31 129.83 174.75 134.00 179.00
C 128.00 179.00 122.00 179.00 116.00 179.00
C 107.15 179.00 98.18 180.21 90.00 181.00
C 111.00 181.00 132.00 180.99 153.00 181.00
C 153.00 181.00 153.76 181.25 154.00 181.00
C 159.73 175.02 167.74 171.06 174.00 166.00
C 174.53 165.26 174.88 164.06 176.00 164.00
C 174.38 160.78 164.71 163.82 161.00 163.00 C 157.29 162.18 150.33 163.31 146.00 163.00 C 141.67 162.69 135.50 163.00 131.00 163.00
C 122.65 163.00 109.91 160.54 102.00 163.00
C 99.18 164.40 107.04 165.60 109.00 165.00 C 110.96 164.40 116.70 165.00 119.00 165.00 Z"/>
</g>
<g fill="#867771" fill-opacity="1.00" stroke="None">
<path d="
M 174.00 166.00 
C 173.13 167.23 171.86 168.36 172.00 170.00
C 172.94 169.43 173.82 168.85 175.00 169.00
C 175.33 167.88 176.58 165.15 176.00 164.00
C 174.88 164.06 174.53 165.26 174.00 166.00 Z"/>
</g>
<g fill="#877F7F" fill-opacity="1.00" stroke="None">
<path d="
M 116.00 179.00 
C 122.00 179.00 128.00 179.00 134.00 179.00
C 129.83 174.75 137.89 171.31 138.00 168.00
C 143.26 168.19 144.67 165.77 150.00 166.00
C 140.66 164.17 129.17 165.00 119.00 165.00
C 120.31 168.16 119.20 170.85 121.00 174.00
C 118.69 172.38 116.66 177.02 116.00 179.00 Z"/>
</g>
<g fill="#615A5B" fill-opacity="1.00" stroke="None">
<path d="
M 154.00 181.00 
C 155.84 185.12 159.21 189.14 163.00 192.00
C 163.12 194.35 160.71 195.81 159.00 197.00
C 155.30 190.80 146.10 197.68 145.00 191.00
C 141.88 196.62 134.82 188.98 133.00 195.00
C 124.10 192.88 117.75 194.46 106.89 195.89 C 96.03 197.32 83.63 196.97 73.00 198.00
C 104.67 198.00 136.33 198.00 168.00 198.00
C 170.14 189.70 172.15 181.35 174.00 173.00
C 174.33 171.53 174.59 170.39 175.00 169.00
C 173.82 168.85 172.94 169.43 172.00 170.00
C 171.86 168.36 173.13 167.23 174.00 166.00
C 167.74 171.06 159.73 175.02 154.00 181.00 Z"/>
</g>
<g fill="#72191E" fill-opacity="1.00" stroke="None">
<path d="
M 123.00 205.00 
C 100.32 202.67 75.50 204.67 52.00 204.00
C 50.85 198.83 56.68 191.70 56.07 187.07 C 55.46 182.44 61.44 172.67 59.00 169.00
C 55.26 180.35 52.51 192.96 50.00 205.00
C 74.33 205.00 98.67 205.00 123.00 205.00 Z"/>
</g>
<g fill="#942022" fill-opacity="1.00" stroke="None">
<path d="
M 46.00 205.00 
C 50.11 194.44 51.77 182.18 55.00 171.00
C 46.77 169.37 37.08 173.17 29.00 171.00
C 34.72 174.36 42.86 172.70 49.00 176.00
C 50.78 185.78 44.64 195.54 46.00 205.00 Z"/>
</g>
<g fill="#39383C" fill-opacity="1.00" stroke="None">
<path d="
M 153.00 181.00 
C 132.00 180.99 111.00 181.00 90.00 181.00
C 86.93 181.00 82.98 180.32 80.00 181.00
C 73.86 184.01 70.05 190.71 64.00 194.00
C 73.20 193.82 91.28 197.53 100.25 194.59 C 109.21 191.64 108.56 187.55 118.00 185.00
C 115.55 183.57 113.00 182.50 110.00 183.00
C 115.82 180.13 125.54 183.39 132.00 182.00 C 138.46 180.61 147.88 184.79 153.00 181.00 Z"/>
</g>
<g fill="#AF6869" fill-opacity="1.00" stroke="None">
<path d="
M 140.00 205.00 
C 140.84 205.57 140.84 207.43 140.00 208.00
C 149.99 208.00 160.02 208.28 170.00 208.00
C 172.43 207.93 174.13 208.03 176.00 207.00
C 176.45 206.47 176.79 202.85 177.00 202.00
C 176.67 201.29 175.51 201.53 175.00 200.00
C 175.00 200.00 174.02 200.09 174.00 200.00
C 174.00 201.67 174.00 203.33 174.00 205.00
C 162.67 205.00 151.33 205.00 140.00 205.00 Z"/>
</g>
<g fill="#861F20" fill-opacity="1.00" stroke="None">
<path d="
M 170.00 208.00 
C 160.02 208.28 149.99 208.00 140.00 208.00
C 129.95 208.00 118.96 208.52 109.00 208.00 C 99.04 207.48 87.62 209.40 78.00 208.00 C 68.38 206.60 56.85 211.34 48.00 208.00
C 58.44 215.53 75.06 209.27 88.00 211.00 C 100.94 212.73 117.00 210.12 130.00 210.00 C 143.00 209.88 157.93 210.54 170.00 208.00 Z"/>
</g>
</svg>